<?xml version="1.0" encoding="utf-8"?>
<!-- Generator: Adobe Illustrator 20.1.0, SVG Export Plug-In . SVG Version: 6.00 Build 0)  -->
<svg version="1.1" id="Слой_1" xmlns="http://www.w3.org/2000/svg" xmlns:xlink="http://www.w3.org/1999/xlink" x="0px" y="0px"
	 width="16px" height="16px" viewBox="0 0 16 16" style="enable-background:new 0 0 16 16;" xml:space="preserve">
<style type="text/css">
	.st0{fill:#191919;}
</style>
<g>
	<g>
		<path class="st0" d="M8,5.3C6.5,5.3,5.3,6.5,5.3,8s1.2,2.7,2.7,2.7s2.7-1.2,2.7-2.7S9.5,5.3,8,5.3z"/>
		<path class="st0" d="M11,0H5C2.2,0,0,2.2,0,5v6c0,2.8,2.2,5,5,5h6c2.8,0,5-2.2,5-5V5C16,2.2,13.8,0,11,0z M8,12.1
			c-2.3,0-4.1-1.8-4.1-4.1c0-2.3,1.8-4.1,4.1-4.1s4.1,1.8,4.1,4.1C12.1,10.3,10.3,12.1,8,12.1z M12.2,4.7c-0.5,0-1-0.4-1-1
			c0-0.5,0.4-1,1-1c0.6,0.1,1,0.5,1,1S12.8,4.7,12.2,4.7z"/>
	</g>
</g>
</svg>
