<?xml version="1.0" encoding="utf-8"?>
<!-- Generator: Adobe Illustrator 20.1.0, SVG Export Plug-In . SVG Version: 6.00 Build 0)  -->
<svg version="1.1" id="Layer_1" xmlns="http://www.w3.org/2000/svg" xmlns:xlink="http://www.w3.org/1999/xlink" x="0px" y="0px"
	 width="16px" height="14px" viewBox="0 0 16 14" style="enable-background:new 0 0 16 14;" xml:space="preserve">
<style type="text/css">
	.st0{fill:#191919;}
</style>
<g>
	<g>
		<path class="st0" d="M15.6,0.4c-0.6,0.4-1.3,0.7-2.1,0.8c-0.6-0.7-1.5-1.1-2.4-1.1c-1.8,0-3.3,1.5-3.3,3.5c0,0.3,0,0.5,0.1,0.8
			C5.3,4.3,2.9,2.9,1.2,0.8C0.9,1.3,0.8,1.9,0.8,2.5c0,1.2,0.6,2.3,1.5,2.9c-0.5,0-1-0.2-1.5-0.4l0,0c0,1.7,1.1,3.1,2.6,3.4
			C3.1,8.5,2.8,8.5,2.5,8.5c-0.2,0-0.4,0-0.6-0.1c0.4,1.4,1.6,2.4,3.1,2.4c-1.1,0.9-2.5,1.5-4.1,1.5c-0.3,0-0.5,0-0.8,0
			c1.5,1,3.2,1.6,5,1.6c6,0,9.3-5.3,9.3-9.8c0-0.1,0-0.3,0-0.4c0.6-0.5,1.2-1.1,1.6-1.8c-0.6,0.3-1.2,0.5-1.9,0.5
			C14.8,1.9,15.3,1.2,15.6,0.4z"/>
	</g>
</g>
</svg>
