<?xml version="1.0" encoding="utf-8"?>
<!-- Generator: Adobe Illustrator 20.1.0, SVG Export Plug-In . SVG Version: 6.00 Build 0)  -->
<svg version="1.1" xmlns="http://www.w3.org/2000/svg" xmlns:xlink="http://www.w3.org/1999/xlink" x="0px" y="0px" width="397.2px"
	 height="157.5px" viewBox="0 0 397.2 157.5" style="enable-background:new 0 0 397.2 157.5;" xml:space="preserve">
<style type="text/css">
	.st0{fill:#FFFFFF;}
	.st1{fill:#F6C930;}
	.st2{fill:#191919;}
</style>
<g id="Слой_2">
	<g>
		<path class="st0" d="M68,0c39.4,0,48.6,39.2,43.1,74.2s-27.1,74.2-66.5,74.2S-4.1,109.2,1.5,74.2S28.6,0,68,0z"/>
		<path class="st0" d="M193.6,99.2c-4.1,26.1-21.2,48.5-51,48.5c-29.8,0-39.8-22.4-35.7-48.5c4.1-26.1,21.2-48.5,51.1-48.5
			S197.7,73.1,193.6,99.2z"/>
		<path class="st1" d="M77.3,37.1c24.8,0,30.7,24.7,27.2,46.8s-17.1,46.8-42,46.8S31.8,106,35.3,83.9S52.4,37.1,77.3,37.1z"/>
		<path class="st1" d="M168.3,97.5c-2.8,17.8-14.5,33-34.7,33c-20.3,0-27.1-15.2-24.3-33s14.5-33,34.7-33S171.1,79.7,168.3,97.5z"/>
		<path class="st2" d="M233.2,97.5c-2.8,17.8-14.5,33-34.7,33c-20.3,0-27.1-15.2-24.3-33s14.5-33,34.7-33S236,79.7,233.2,97.5z"/>
		<path class="st2" d="M268,74.6l0.2,0.2c3.6-6.1,8.8-10.3,15.9-10.3c16.1,0,17.4,20.3,15.4,33c-2,12.5-8.9,33-25.1,33
			c-7.2,0-11-4.1-13.4-10l-0.3,0.2c-0.4,4-0.6,7.8-1.3,11.8l-3.9,25H232l14.5-91.7H270L268,74.6z"/>
		<path class="st2" d="M312.6,106.4c2.3,3,6.4,6.6,10.7,6.6c2,0,4.7-1,5.1-3.2c0.4-2.3-1.5-3.6-5.3-5c-8.7-3.2-15.3-8-13.6-18.8
			c2.1-13.1,14.1-21.4,28.8-21.4c6.4,0,13.5,2,18.5,5.2L346,86.8c-2.4-2.5-5-5.6-8.9-5.6c-1.7,0-3.7,1.1-4,3.1
			c-0.5,3.2,3.8,4.9,6.1,5.9c8,3.2,14.1,7.8,12.5,18.1c-2.3,14.3-15.7,22.2-28.8,22.2c-8.6,0-15-2.5-21.8-6.6L312.6,106.4z"/>
	</g>
	<g>
		<path class="st2" d="M357.9,117.1c1.2-7.3,8.3-13.6,15.3-13.6c7.8,0,13.4,5.9,12.1,13.9c-1.2,7.6-8.4,13.6-15.9,13.6
			C361.7,131.1,356.7,124.8,357.9,117.1z M363.3,97.3l10-63.2h23.9l-10,63.2H363.3z"/>
	</g>
</g>
<g id="Слой_4">
	<path class="st0" d="M97,72.1c0.8,6.5-2.1,12.1-6.6,12.7s-4.9-4.7-5.7-11.1C83.9,67.2,83,62,87.5,61.4C91.9,60.8,96.2,65.6,97,72.1
		z"/>
	<ellipse transform="matrix(0.2582 -0.9661 0.9661 0.2582 -14.5547 129.4692)" class="st0" cx="77" cy="74.2" rx="2.7" ry="2.7"/>
	<path class="st0" d="M159.8,83.5c1,4.5-0.7,8.8-3.8,9.5c-3.1,0.7-3.8-3-4.8-7.5c-1-4.5-2-8.1,1.1-8.9S158.8,79,159.8,83.5z"/>
	<ellipse transform="matrix(0.4222 -0.9065 0.9065 0.4222 6.7557 180.9946)" class="st0" cx="145.4" cy="85.2" rx="1.9" ry="1.9"/>
</g>
</svg>
