<?xml version="1.0" encoding="utf-8"?>
<!-- Generator: Adobe Illustrator 20.1.0, SVG Export Plug-In . SVG Version: 6.00 Build 0)  -->
<svg version="1.1" id="Слой_1" xmlns="http://www.w3.org/2000/svg" xmlns:xlink="http://www.w3.org/1999/xlink" x="0px" y="0px"
	 width="214.9px" height="99.6px" viewBox="0 0 214.9 99.6" style="enable-background:new 0 0 214.9 99.6;" xml:space="preserve">
<style type="text/css">
	.st0{fill:#FFFFFF;}
	.st1{fill:#181919;}
	.st2{display:none;}
	.st3{display:inline;fill:#181919;}
</style>
<path class="st0" d="M137.8,9.3c-15.2,0-27.6,16.2-27.6,36.2s12.4,36.1,27.6,36.1s27.6-16.2,27.6-36.1S153,9.3,137.8,9.3L137.8,9.3z
	"/>
<path class="st1" d="M147.8,43c-5.5,0-10,6-10,13.3s4.5,13.3,10,13.3s10-6,10-13.3S153.3,43,147.8,43z"/>
<path class="st0" d="M77,9.3c-15.2,0-27.6,16.2-27.6,36.2S61.8,81.6,77,81.6s27.6-16.2,27.6-36.1S92.2,9.3,77,9.3L77,9.3z"/>
<path class="st1" d="M86.3,43C80.6,43,76,49.1,76,56.7s4.6,13.6,10.3,13.6c5.7,0,10.3-6.1,10.3-13.7S92,43,86.3,43z"/>
<ellipse class="st0" cx="91.8" cy="60.3" rx="1.3" ry="1.7"/>
<ellipse class="st0" cx="153.5" cy="60.3" rx="1.3" ry="1.8"/>
<g class="st2">
	<path class="st3" d="M187.3,48.3c0-27.6-17-50-38-50s-38,22.4-38,50c0,3.4,0.3,6.8,0.8,10c0,0-0.8,8,37.2,8s37.2-8,37.2-8
		C187.1,55.1,187.3,51.7,187.3,48.3z"/>
	<path class="st3" d="M103.6,48.3c0-27.6-17-50-38-50s-38,22.4-38,50c0,3.4,0.3,6.8,0.8,10c0,0-0.8,8,37.2,8s37.2-8,37.2-8
		C103.4,55.1,103.6,51.7,103.6,48.3z"/>
	<path class="st3" d="M149.3,98.3c18.4,0,33.7-17.2,37.2-40c0,0,0.8,5-37.2,5s-37.2-5-37.2-5C115.6,81.1,131,98.3,149.3,98.3z"/>
	<path class="st3" d="M65.6,98.3c18.4,0,33.8-17.2,37.3-40c0,0,0.8,5-37.2,5c-38.4,0-37.3-5-37.3-5C31.9,81.1,47.2,98.3,65.6,98.3z"
		/>
</g>
<path class="st1" d="M183.4,52h-2.1c-1.6-17.8-16.7-31.8-34.9-31.8c-15.1,0-28,9.6-32.9,23c-3.7-1.5-7.9-1.5-11.7-0.1
	c-5-13.4-17.8-22.9-32.9-22.9c-18.2,0-33.3,14-34.9,31.8h-2.6v6.5h2.5c1.7,17.8,16.7,31.8,34.9,31.8c19.3,0,35.1-15.7,35.1-35.1
	c0-2-0.2-3.9-0.5-5.8c2.6-1.2,5.7-1.2,8.3,0.1c-0.3,1.9-0.5,3.8-0.5,5.7c0.1,19.4,15.8,35.1,35.2,35.1c18.2,0,33.3-14,34.9-31.8h2.1
	V52z M68.8,83.8C53,83.8,40.2,71,40.2,55.2S53,26.6,68.8,26.6c15.8,0,28.6,12.9,28.6,28.6S84.6,83.8,68.8,83.8z M146.4,83.8
	c-15.8,0-28.6-12.8-28.6-28.6s12.8-28.6,28.6-28.6S175,39.4,175,55.2S162.1,83.8,146.4,83.8z"/>
</svg>
