<?xml version="1.0" encoding="utf-8"?>
<!-- Generator: Adobe Illustrator 20.1.0, SVG Export Plug-In . SVG Version: 6.00 Build 0)  -->
<svg version="1.1" id="Слой_1" xmlns="http://www.w3.org/2000/svg" xmlns:xlink="http://www.w3.org/1999/xlink" x="0px" y="0px"
	 width="164px" height="106px" viewBox="0 0 164 106" style="enable-background:new 0 0 164 106;" xml:space="preserve">
<style type="text/css">
	.st0{display:none;fill:#EFEFD8;}
	.st1{fill:#181919;}
	.st2{fill:#FFFFFF;}
	.st3{fill:#0E0F0F;}
	.st4{fill:#EFEFD8;}
	.st5{display:none;fill:#19191A;}
</style>
<path class="st0" d="M121.7,0.7c-21,0-38,22.4-38,50s17,50,38,50s38-22.4,38-50S142.7,0.7,121.7,0.7L121.7,0.7z"/>
<path class="st1" d="M135.7,59.3c-4.1,0-7.5,4.5-7.5,10c0,5.5,3.4,10,7.5,10s7.5-4.5,7.5-10C143.2,63.8,139.8,59.3,135.7,59.3z"/>
<path class="st0" d="M38,0.7c-21,0-38,22.4-38,50s17,50,38,50s38-22.4,38-50S59,0.7,38,0.7L38,0.7z"/>
<path class="st1" d="M52.2,59.3c-4.1,0-7.5,4.5-7.5,10c0,5.5,3.4,10,7.5,10s7.5-4.5,7.5-10C59.7,63.8,56.4,59.3,52.2,59.3z"/>
<ellipse class="st2" cx="53" cy="71" rx="3" ry="4"/>
<ellipse class="st2" cx="136.1" cy="71" rx="3" ry="4"/>
<path class="st2" d="M124.8,0c-21.7,0-39.2,23.7-39.2,53s17.6,53,39.2,53S164,82.3,164,53S146.4,0,124.8,0L124.8,0z"/>
<path class="st3" d="M153,21.5c-6.6-6.6-17.5-6.4-24.4,0.5c-6.9,6.9-7.1,17.8-0.5,24.4s17.5,6.4,24.4-0.5
	C159.3,39,159.6,28.1,153,21.5z"/>
<path class="st2" d="M39.3,0C17.6,0,0,23.7,0,53s17.6,53,39.2,53s39.3-23.7,39.3-53S60.9,0,39.3,0L39.3,0z"/>
<path class="st3" d="M66.5,21.7C59.8,15,48.8,15,42.1,21.8S35.3,39.4,42,46.2s17.6,6.7,24.4-0.1S73.2,28.4,66.5,21.7z"/>
<path class="st2" d="M151.9,40.5c-1.3,3.1-4.1,4.9-6.2,4c-2.1-0.9-0.9-3.3,0.4-6.4c1.3-3.1,2.3-5.6,4.4-4.7
	C152.6,34.2,153.3,37.5,151.9,40.5z"/>
<ellipse transform="matrix(0.7071 -0.7071 0.7071 0.7071 16.0039 111.4792)" class="st2" cx="142.6" cy="36.4" rx="1.4" ry="1.4"/>
<path class="st2" d="M65.3,41.3c-1.3,3.1-4.1,4.9-6.2,4c-2.1-0.9-0.9-3.3,0.4-6.4s2.3-5.6,4.4-4.7C66,35,66.6,38.2,65.3,41.3z"/>
<ellipse transform="matrix(0.7071 -0.7071 0.7071 0.7071 -9.8871 50.4494)" class="st2" cx="56" cy="37.2" rx="1.4" ry="1.4"/>
<g>
	<path class="st4" d="M164,53c0-29.3-17.5-53-39-53S86,23.7,86,53c0,3.6,0.3,7.2,0.8,10.6c0,0-0.8-35.5,38.2-35.5
		s38.2,35.5,38.2,35.5C163.7,60.2,164,56.6,164,53z"/>
	<path class="st4" d="M78,53C78,23.7,60.6,0,39,0S0,23.7,0,53c0,3.6,0.3,7.2,0.8,10.6c0,0-0.8-37.2,38.2-37.2s38.2,37.2,38.2,37.2
		C77.8,60.2,78,56.6,78,53z"/>
	<path class="st4" d="M125,106c18.9,0,34.6-18.2,38.2-42.4c0,0,0.8-4.3-38.2-4.3s-38.2,4.3-38.2,4.3C90.3,87.8,106.1,106,125,106z"
		/>
	<path class="st4" d="M39,106c18.9,0,34.6-18.2,38.2-42.4c0,0,0.8-4.3-38.2-4.3c-39.3,0-38.2,4.3-38.2,4.3C4.4,87.8,20.1,106,39,106
		z"/>
</g>
<polygon class="st5" points="133.6,-29.8 121.7,-15.1 129.3,-16.8 125.8,-6.1 137.9,-21.7 130.6,-20.3 "/>
<polygon class="st5" points="34.5,-30.3 30.2,-11.9 36.3,-16.8 37.8,-5.6 42,-24.9 36,-20.5 "/>
</svg>
