<?xml version="1.0" encoding="utf-8"?>
<!-- Generator: Adobe Illustrator 20.1.0, SVG Export Plug-In . SVG Version: 6.00 Build 0)  -->
<svg version="1.1" id="Слой_1" xmlns="http://www.w3.org/2000/svg" xmlns:xlink="http://www.w3.org/1999/xlink" x="0px" y="0px"
	 width="112px" height="70.1px" viewBox="0 0 112 70.1" style="enable-background:new 0 0 112 70.1;" xml:space="preserve">
<style type="text/css">
	.st0{fill:#FFFFFF;}
	.st1{fill:#181919;}
	.st2{fill:#EEEED7;}
</style>
<path class="st0" d="M26.6,70.1c14.7,0,26.6-15.7,26.6-35.1S41.4,0,26.6,0C11.9,0,0,15.7,0,35.1S11.9,70.1,26.6,70.1L26.6,70.1z"/>
<path class="st1" d="M33.3,41.4c0,5.8,3.5,10.5,7.8,10.5S49,47.2,49,41.4s-3.5-10.5-7.8-10.5S33.3,35.6,33.3,41.4z"/>
<path class="st0" d="M85.4,70.1c14.7,0,26.6-15.7,26.6-35.1S100.1,0,85.4,0C70.6,0,58.7,15.7,58.7,35.1S70.6,70.1,85.4,70.1
	L85.4,70.1z"/>
<path class="st1" d="M62,41.6c0,5.7,3.5,10.3,7.7,10.3c4.3,0,7.7-4.6,7.7-10.3S74,31.3,69.7,31.3C65.4,31.3,62,35.9,62,41.6z"/>
<ellipse class="st0" cx="73.4" cy="38" rx="1.5" ry="2.1"/>
<ellipse class="st0" cx="45.1" cy="37.7" rx="1.6" ry="2.1"/>
<g>
	<path class="st2" d="M0,35.1C0,15.7,11.9,0,26.6,0c14.7,0,26.6,15.7,26.6,35.1c0,2.4-0.2,4.7-0.5,7c0,0,0.5-40.9-26.1-40.9
		S0.5,42.1,0.5,42.1C0.2,39.8,0,37.5,0,35.1z"/>
	<path class="st2" d="M58.7,35.1C58.7,15.7,70.6,0,85.4,0C100.1,0,112,15.7,112,35.1c0,2.4-0.2,4.7-0.5,7c0,0-4.9-25.1-31.4-27
		c-26.6-1.9-20.9,27-20.9,27C58.9,39.8,58.7,37.5,58.7,35.1z"/>
	<path class="st2" d="M26.6,70.1C13.8,70.1,3,58.1,0.5,42.1c0,0,3,6.9,26.1,6.9c23.4,0,26.1-6.9,26.1-6.9
		C50.3,58.1,39.5,70.1,26.6,70.1z"/>
	<path class="st2" d="M85.4,70.1c-12.9,0-23.6-12.1-26.1-28.1c0,0,2.3,6.5,26.1,6.5c23.5,0,26.1-6.5,26.1-6.5
		C109,58.1,98.2,70.1,85.4,70.1z"/>
</g>
</svg>
