<?xml version="1.0" encoding="utf-8"?>
<!-- Generator: Adobe Illustrator 20.1.0, SVG Export Plug-In . SVG Version: 6.00 Build 0)  -->
<svg version="1.1" id="Слой_3" xmlns="http://www.w3.org/2000/svg" xmlns:xlink="http://www.w3.org/1999/xlink" x="0px" y="0px"
	 width="88px" height="58px" viewBox="0 0 88 58" style="enable-background:new 0 0 88 58;" xml:space="preserve">
<style type="text/css">
	.st0{fill:#FFFFFF;}
</style>
<path class="st0" d="M66.9,0c-11.6,0-21,13-21,29S55.3,58,67,58s21-13,21-29S78.6,0,66.9,0L66.9,0z"/>
<path d="M77.7,14.2c-4.4,0-8,5.1-8,11.3s3.6,11.3,8,11.3s8-5.1,8-11.3S82.1,14.2,77.7,14.2z"/>
<path class="st0" d="M21.1,0C9.4,0,0,13,0,29s9.4,29,21.1,29s21.1-13,21.1-29S32.7,0,21.1,0L21.1,0z"/>
<path d="M31.8,14.2c-4.4,0-8,5.1-8,11.3s3.6,11.3,8,11.3s8-5.1,8-11.3S36.2,14.2,31.8,14.2z"/>
<ellipse class="st0" cx="34" cy="22.6" rx="4.3" ry="5.7"/>
<ellipse class="st0" cx="79.6" cy="22.6" rx="4.3" ry="5.7"/>
</svg>
