<?xml version="1.0" encoding="utf-8"?>
<!-- Generator: Adobe Illustrator 20.1.0, SVG Export Plug-In . SVG Version: 6.00 Build 0)  -->
<svg version="1.1" id="Слой_1" xmlns="http://www.w3.org/2000/svg" xmlns:xlink="http://www.w3.org/1999/xlink" x="0px" y="0px"
	 width="91.8px" height="58.4px" viewBox="0 0 91.8 58.4" style="enable-background:new 0 0 91.8 58.4;" xml:space="preserve">
<style type="text/css">
	.st0{fill:#FFFFFF;}
	.st1{fill:#0E0F0F;}
	.st2{fill:#F0F0D9;}
</style>
<path class="st0" d="M69.7,0C57.7,0,48.1,13,48.1,29.2s9.7,29.2,21.6,29.2s21.6-13,21.6-29.2S81.6,0,69.7,0L69.7,0z"/>
<path class="st0" d="M22.1,0C10.2,0,0.5,13,0.5,29.2s9.7,29.2,21.6,29.2s21.6-13,21.6-29.2S34.1,0,22.1,0L22.1,0z"/>
<path class="st1" d="M70,18.1c-5.5,0-10,5.8-10,12.9s4.5,12.9,10,12.9S80,38.1,80,31S75.5,18.1,70,18.1z"/>
<path class="st1" d="M22.1,18.1c-5.5,0-10,5.8-10,12.8s4.4,12.9,10,12.9s10-5.8,10-12.8S27.6,18.1,22.1,18.1z"/>
<path class="st0" d="M29.4,25.4c0.6,1.5,0.3,3.2-0.9,3.6c-1.2,0.4-1.2-1-1.9-2.5c-0.6-1.5-1.5-2.7-0.4-3.1
	C27.4,23,28.7,23.9,29.4,25.4z"/>
<path class="st0" d="M77,25.3c0.6,1.6,0.3,3.3-0.9,3.8c-1.2,0.5-1.3-1-1.9-2.6s-1.6-2.8-0.4-3.2C74.9,22.7,76.3,23.6,77,25.3z"/>
<g>
	<path class="st2" d="M91.8,29.2C91.8,13.3,82,0.5,70,0.5S48.1,13.3,48.1,29.2c0,2,0.2,3.9,0.5,5.7c0,0-0.5-14.4,21.4-14.4
		s21.4,14.4,21.4,14.4C91.6,33.1,91.8,31.2,91.8,29.2z"/>
	<path class="st2" d="M43.7,29.2c0-15.9-9.8-28.7-21.8-28.7S0,13.3,0,29.2c0,2,0.2,3.9,0.5,5.7c0,0-0.6-14.9,21.3-14.9
		s21.5,14.9,21.5,14.9C43.5,33.1,43.7,31.2,43.7,29.2z"/>
	<path class="st2" d="M70,57.9c10.6,0,19.4-9.9,21.4-23c0,0-2.1-2.9-21.4-2.9c-19.6,0-21.4,2.9-21.4,2.9C50.6,48,59.4,57.9,70,57.9z
		"/>
	<path class="st2" d="M21.8,57.9c10.6,0,19.4-9.9,21.4-23c0,0-3.6-2.9-21.4-2.9S0.4,34.9,0.4,34.9C2.5,48,11.3,57.9,21.8,57.9z"/>
</g>
</svg>
