<?xml version="1.0" encoding="utf-8"?>
<!-- Generator: Adobe Illustrator 20.1.0, SVG Export Plug-In . SVG Version: 6.00 Build 0)  -->
<svg version="1.1" id="Слой_1" xmlns="http://www.w3.org/2000/svg" xmlns:xlink="http://www.w3.org/1999/xlink" x="0px" y="0px"
	 width="140px" height="62.7px" viewBox="0 0 140 62.7" style="enable-background:new 0 0 140 62.7;" xml:space="preserve">
<style type="text/css">
	.st0{fill:#FFFFFF;}
	.st1{fill:#0E0F0F;}
</style>
<path class="st0" d="M95.7,0c-13,0-23.5,14-23.5,31.3s10.5,31.3,23.5,31.3s23.5-14,23.5-31.3S108.7,0,95.7,0L95.7,0z"/>
<path class="st1" d="M99.9,30.8c-5,0-9,4.8-9,10.7s4,10.7,9,10.7s9-4.8,9-10.7S104.9,30.8,99.9,30.8z"/>
<path class="st0" d="M44.5,0C31.5,0,21,14,21,31.3s10.5,31.3,23.5,31.3S68,48.6,68,31.3S57.5,0,44.5,0L44.5,0z"/>
<path class="st1" d="M48.6,30.8c-5,0-9,4.8-9,10.7s4,10.7,9,10.7s9-4.8,9-10.7S53.6,30.8,48.6,30.8z"/>
<ellipse class="st0" cx="53" cy="39.6" rx="2" ry="2.5"/>
<ellipse class="st0" cx="104.8" cy="44" rx="2" ry="2.5"/>
<g>
	<path class="st1" d="M123.7,7"/>
	<path class="st1" d="M51.3,0h6.3c1.4,0,2.7,0,4.2,0C66.7,0,72,0,78.6,0C80,0,81.5,0,83,0h39h1.7h9.5c2.7,4.2,4.4,9.1,4.9,14.3h1.9
		v6h-1.9c-1.5,16.4-15.4,29.3-32.2,29.3c-17.8,0-32.3-14.5-32.3-32.3c0-1.8,0.2-3.5,0.4-5.2c-2.4-1.2-5.2-1.2-7.7-0.1
		c0.3,1.7,0.4,3.5,0.4,5.3c0,17.8-14.5,32.3-32.3,32.3c-16.8,0-30.7-12.9-32.2-29.3H0v-6h2.3C2.8,9.1,4.5,4.2,7.2,0H50H51.3z"/>
	<g>
		<polygon class="st0" points="111.7,39.2 112.4,32.2 102.9,59.4 109.2,56.1 106.3,76.4 116.3,46.7 110.3,49.4 		"/>
		<polygon class="st0" points="40.3,36.6 41.3,30.3 31.2,59 37.5,55.7 34.6,76.1 44.6,46.4 38.6,49.1 		"/>
		<polygon class="st0" points="132.7,-9.6 126.6,-6.9 128,-17.1 128.7,-24.1 119.2,3 125.5,-0.3 122.6,20.1 		"/>
		<polygon class="st0" points="55.6,-17.1 56.6,-23.4 46.5,5.3 52.8,1.9 50,22.3 60,-7.4 53.9,-4.7 		"/>
	</g>
	<path class="st1" d="M51.3,7"/>
</g>
</svg>
