<?xml version="1.0" encoding="utf-8"?>
<!-- Generator: Adobe Illustrator 20.1.0, SVG Export Plug-In . SVG Version: 6.00 Build 0)  -->
<svg version="1.1" id="Слой_1" xmlns="http://www.w3.org/2000/svg" xmlns:xlink="http://www.w3.org/1999/xlink" x="0px" y="0px"
	 width="118px" height="76px" viewBox="0 0 118 76" style="enable-background:new 0 0 118 76;" xml:space="preserve">
<style type="text/css">
	.st0{fill:#FFFFFF;}
	.st1{fill:#0E0F0F;}
	.st2{display:none;}
	.st3{display:inline;fill:#EEEED7;}
</style>
<path class="st0" d="M89.9,0C74.4,0,61.8,17,61.8,38s12.6,38,28.1,38S118,59,118,38S105.4,0,89.9,0L89.9,0z"/>
<path class="st0" d="M28.1,0C12.6,0,0,17,0,38s12.6,38,28.1,38s28.1-17,28.1-38S43.6,0,28.1,0L28.1,0z"/>
<path class="st1" d="M79,14.8c-6,0-10.9,6.3-10.9,14s4.9,14,10.9,14c6,0,10.9-6.3,10.9-14S85,14.8,79,14.8z"/>
<path class="st1" d="M36.9,36.9c-6.2,0-11.3,6.5-11.3,14.5S30.6,66,36.9,66s11.3-6.5,11.3-14.5S43.1,36.9,36.9,36.9z"/>
<g class="st2">
	<path class="st3" d="M138.9,38c0-27.6-17-50-38-50s-38,22.4-38,50c0,3.4,0.3,6.8,0.8,10c0,0-0.8,8,37.2,8s37.2-8,37.2-8
		C138.6,44.8,138.9,41.4,138.9,38z"/>
	<path class="st3" d="M55.1,38c0-27.6-17-50-38-50s-38,22.4-38,50c0,3.4,0.3,6.8,0.8,10c0,0-0.8,8,37.2,8s37.2-8,37.2-8
		C54.9,44.8,55.1,41.4,55.1,38z"/>
	<path class="st3" d="M100.9,88c18.4,0,33.7-17.2,37.2-40c0,0,0.8,5-37.2,5s-37.2-5-37.2-5C67.1,70.8,82.5,88,100.9,88z"/>
	<path class="st3" d="M17.1,88c18.4,0,33.7-17.2,37.2-40c0,0,0.8,5-37.2,5c-38.3,0-37.2-5-37.2-5C-16.6,70.8-1.2,88,17.1,88z"/>
</g>
<path class="st0" d="M44.3,45.2c0.7,1.7,0.3,3.6-1,4.1s-1.4-1.1-2.1-2.8s-1.7-3-0.4-3.5C42.1,42.5,43.6,43.5,44.3,45.2z"/>
<path class="st0" d="M86.6,23.3c0.7,1.7,0.3,3.6-1,4.1s-1.4-1.1-2.1-2.8s-1.7-3-0.4-3.5C84.3,20.5,85.9,21.5,86.6,23.3z"/>
</svg>
