<?xml version="1.0" encoding="utf-8"?>
<!-- Generator: Adobe Illustrator 20.1.0, SVG Export Plug-In . SVG Version: 6.00 Build 0)  -->
<svg version="1.1" id="Слой_1" xmlns="http://www.w3.org/2000/svg" xmlns:xlink="http://www.w3.org/1999/xlink" x="0px" y="0px"
	 width="86px" height="53.8px" viewBox="0 0 86 53.8" style="enable-background:new 0 0 86 53.8;" xml:space="preserve">
<style type="text/css">
	.st0{fill:#FFFFFF;}
	.st1{fill:#181919;}
	.st2{fill:#EEEED7;}
</style>
<path class="st0" d="M65.5,0C54.2,0,45.1,12.1,45.1,26.9s9.2,26.9,20.5,26.9S86,41.8,86,26.9S76.8,0,65.5,0L65.5,0z"/>
<path class="st1" d="M65.5,16.9c-4.1,0-7.5,4.5-7.5,10s3.4,10,7.5,10s7.5-4.5,7.5-10S69.7,16.9,65.5,16.9z"/>
<path class="st0" d="M20.5,0C9.2,0,0,12.1,0,26.9s9.2,26.9,20.5,26.9s20.5-12.1,20.5-26.9S31.8,0,20.5,0L20.5,0z"/>
<path class="st1" d="M19.9,16.9c-4.1,0-7.5,4.5-7.5,10s3.4,10,7.5,10s7.5-4.5,7.5-10S24,16.9,19.9,16.9z"/>
<ellipse class="st0" cx="23.9" cy="23.5" rx="1.5" ry="2"/>
<ellipse class="st0" cx="69.3" cy="23.3" rx="1.5" ry="2"/>
<g>
	<path class="st2" d="M86,26.9c0,14.9-9.2,26.9-20.5,26.9c-11.3,0-20.5-12.1-20.5-26.9c0-1.8,0.1-3.6,0.4-5.4
		c0,0-0.4,30.7,20.1,30.7s20.1-30.7,20.1-30.7C85.9,23.3,86,25.1,86,26.9z"/>
	<path class="st2" d="M40.9,26.9c0,14.9-9.2,26.9-20.5,26.9S0,41.8,0,26.9c0-1.8,0.1-3.6,0.4-5.4c0,0-0.4,30.3,20.1,30.3
		s20.1-30.3,20.1-30.3C40.8,23.3,40.9,25.1,40.9,26.9z"/>
	<path class="st2" d="M65.5,0c9.9,0,18.2,9.3,20.1,21.5c0,0,0.4-15.2-20.1-15.2S45.5,21.5,45.5,21.5C47.4,9.3,55.6,0,65.5,0z"/>
	<path class="st2" d="M20.5,0c9.9,0,18.2,9.3,20.1,21.5c0,0,0.4-15.2-20.1-15.2C-0.2,6.3,0.4,21.5,0.4,21.5C2.3,9.3,10.6,0,20.5,0z"
		/>
</g>
</svg>
