<?xml version="1.0" encoding="utf-8"?>
<!-- Generator: Adobe Illustrator 20.1.0, SVG Export Plug-In . SVG Version: 6.00 Build 0)  -->
<svg version="1.1" id="Слой_1" xmlns="http://www.w3.org/2000/svg" xmlns:xlink="http://www.w3.org/1999/xlink" x="0px" y="0px"
	 width="140px" height="70.8px" viewBox="0 0 140 70.8" style="enable-background:new 0 0 140 70.8;" xml:space="preserve">
<style type="text/css">
	.st0{fill:#FFFFFF;}
	.st1{fill:#0E0F0F;}
</style>
<path class="st0" d="M95.7,8.1c-13,0-23.5,14-23.5,31.3s10.5,31.3,23.5,31.3s23.5-14,23.5-31.3S108.7,8.1,95.7,8.1L95.7,8.1z"/>
<path class="st1" d="M99.9,38.9c-5,0-9,4.8-9,10.7s4,10.7,9,10.7c5,0,9-4.8,9-10.7S104.9,38.9,99.9,38.9z"/>
<path class="st0" d="M44.5,8.1c-13,0-23.5,14-23.5,31.3s10.5,31.3,23.5,31.3S68,56.8,68,39.5S57.5,8.1,44.5,8.1L44.5,8.1z"/>
<path class="st1" d="M48.6,38.9c-5,0-9,4.8-9,10.7s4,10.7,9,10.7s9-4.8,9-10.7S53.6,38.9,48.6,38.9z"/>
<ellipse class="st0" cx="53.7" cy="52.2" rx="2" ry="2.5"/>
<ellipse class="st0" cx="104.8" cy="52.2" rx="2" ry="2.5"/>
<g>
	<path class="st1" d="M140,14.3h-1.9c-0.5-5.2-2.2-10.1-4.9-14.3h-9.5l-1.4,10.2l6.1-2.7l-10,29.7l2.9-20.4l-6.3,3.3L122,0H83.1
		c-1.6,0-3,0-4.4,0c-6.6,0-12,0-16.9,0c-1.4,0-2.8,0-4.2,0h-6.3l-1.7,12.4l6.1-2.7l-10,29.7l2.9-20.4l-6.3,3.3L50.1,0H7.2
		C4.5,4.2,2.8,9.1,2.3,14.3H0v6h2.3c1.5,16.4,15.4,29.3,32.2,29.3c17.8,0,32.3-14.5,32.3-32.3c0-1.8-0.2-3.6-0.4-5.3
		c2.4-1.1,5.3-1.1,7.7,0.1c-0.3,1.7-0.4,3.5-0.4,5.2c0,17.8,14.5,32.3,32.3,32.3c16.8,0,30.7-12.9,32.2-29.3h1.9V14.3z"/>
	<polygon class="st0" points="121.2,16.9 118.3,37.2 128.3,7.5 122.3,10.2 123.7,0 122,0 114.9,20.2 	"/>
	<polygon class="st0" points="48.5,19.1 45.6,39.4 55.6,9.7 49.6,12.4 51.3,0 50.1,0 42.2,22.4 	"/>
</g>
</svg>
