<?xml version="1.0" encoding="utf-8"?>
<!-- Generator: Adobe Illustrator 20.1.0, SVG Export Plug-In . SVG Version: 6.00 Build 0)  -->
<svg version="1.1" id="Слой_1" xmlns="http://www.w3.org/2000/svg" xmlns:xlink="http://www.w3.org/1999/xlink" x="0px" y="0px"
	 width="132px" height="84px" viewBox="0 0 132 84" style="enable-background:new 0 0 132 84;" xml:space="preserve">
<style type="text/css">
	.st0{fill:#FFFFFF;}
	.st1{fill:#0E0F0F;}
	.st2{display:none;}
	.st3{display:inline;fill:#EEEED7;}
</style>
<path class="st0" d="M100.6,0C83.2,0,69.2,18.8,69.2,42s14.1,42,31.4,42S132,65.2,132,42S117.9,0,100.6,0L100.6,0z"/>
<path class="st0" d="M31.4,0C14.1,0,0,18.8,0,42s14.1,42,31.4,42s31.4-18.8,31.4-42S48.8,0,31.4,0L31.4,0z"/>
<path class="st1" d="M100.6,28.8c-6.7,0-12.2,5.9-12.2,13.2s5.5,13.2,12.2,13.2c6.7,0,12.2-5.9,12.2-13.2S107.3,28.8,100.6,28.8z"/>
<path class="st1" d="M31,28.3c-7,0-12.6,6.1-12.6,13.7S24,55.7,31,55.7S43.6,49.6,43.6,42S37.9,28.3,31,28.3z"/>
<polygon class="st0" points="106.4,32.7 100.4,40.3 104.2,39.4 102.5,44.9 108.6,36.9 104.9,37.6 "/>
<polygon class="st0" points="38.4,32.7 32.4,40.3 36.3,39.4 34.5,44.9 40.6,36.9 36.9,37.6 "/>
<g class="st2">
	<path class="st3" d="M145.9,42c0-27.6-17-50-38-50s-38,22.4-38,50c0,3.4,0.3,6.8,0.8,10c0,0-0.8,8,37.2,8s37.2-8,37.2-8
		C145.6,48.8,145.9,45.4,145.9,42z"/>
	<path class="st3" d="M62.1,42c0-27.6-17-50-38-50s-38,22.4-38,50c0,3.4,0.3,6.8,0.8,10c0,0-0.8,8,37.2,8s37.2-8,37.2-8
		C61.9,48.8,62.1,45.4,62.1,42z"/>
	<path class="st3" d="M107.9,92c18.4,0,33.7-17.2,37.2-40c0,0,0.8,5-37.2,5s-37.2-5-37.2-5C74.1,74.8,89.5,92,107.9,92z"/>
	<path class="st3" d="M24.1,92c18.4,0,33.7-17.2,37.2-40c0,0,0.8,5-37.2,5c-38.3,0-37.2-5-37.2-5C-9.6,74.8,5.8,92,24.1,92z"/>
</g>
</svg>
