<?xml version="1.0" encoding="utf-8"?>
<!-- Generator: Adobe Illustrator 20.1.0, SVG Export Plug-In . SVG Version: 6.00 Build 0)  -->
<svg version="1.1" id="Слой_1" xmlns="http://www.w3.org/2000/svg" xmlns:xlink="http://www.w3.org/1999/xlink" x="0px" y="0px"
	 width="118px" height="76px" viewBox="0 0 118 76" style="enable-background:new 0 0 118 76;" xml:space="preserve">
<style type="text/css">
	.st0{fill:#FFFFFF;}
	.st1{fill:#0E0F0F;}
	.st2{fill:#EEEED7;}
</style>
<path class="st0" d="M83.1,8.4C71,8.4,61.2,21.6,61.2,38S71,67.6,83.1,67.6S105,54.4,105,38S95.2,8.4,83.1,8.4L83.1,8.4z"/>
<path class="st0" d="M34.9,8.4C22.8,8.4,13,21.6,13,38s9.8,29.6,21.9,29.6S56.8,54.4,56.8,38S47,8.4,34.9,8.4L34.9,8.4z"/>
<path class="st1" d="M83.1,26.9c-5.5,0-10,5.8-10,12.9s4.5,12.9,10,12.9c5.5,0,10-5.8,10-12.9S88.6,26.9,83.1,26.9z"/>
<path class="st1" d="M34.9,26.9c-5.5,0-10,5.8-10,12.8s4.4,12.9,10,12.9s10-5.8,10-12.8S40.4,26.9,34.9,26.9z"/>
<path class="st0" d="M41.5,34.2c0.6,1.5,0.3,3.2-0.9,3.6c-1.2,0.4-1.2-1-1.9-2.5c-0.6-1.5-1.5-2.7-0.4-3.1
	C39.5,31.8,40.8,32.7,41.5,34.2z"/>
<path class="st0" d="M90.1,34.7c0.6,1.6,0.3,3.3-0.9,3.8c-1.2,0.5-1.3-1-1.9-2.6c-0.6-1.6-1.6-2.8-0.4-3.2
	C88,32.1,89.4,33,90.1,34.7z"/>
<g>
	<path class="st2" d="M104.9,38c0-15.9-9.8-28.7-21.8-28.7S61.2,22.1,61.2,38c0,2,0.2,3.9,0.5,5.7c0,0-0.5-13.9,21.4-13.9
		s21.4,13.9,21.4,13.9C104.7,41.9,104.9,40,104.9,38z"/>
	<path class="st2" d="M56.8,38c0-15.9-9.8-28.7-21.8-28.7S13.1,22.1,13.1,38c0,2,0.2,3.9,0.5,5.7c0,0-0.5-13.9,21.4-13.9
		s21.4,13.9,21.4,13.9C56.6,41.9,56.8,40,56.8,38z"/>
	<path class="st2" d="M83.1,66.7c10.6,0,19.4-9.9,21.4-23c0,0-2.1,21.2-21.4,21.2c-19.6,0-21.4-21.2-21.4-21.2
		C63.7,56.8,72.5,66.7,83.1,66.7z"/>
	<path class="st2" d="M34.9,66.7c10.6,0,19.4-9.9,21.4-23c0,0-3.6,21.2-21.4,21.2c-17.8,0-21.4-21.2-21.4-21.2
		C15.6,56.8,24.4,66.7,34.9,66.7z"/>
</g>
<path d="M90.3,30.7c0,0,8.6,0.5,11.9-6c-0.3,3.1-3.1,8.7-6.8,8.6"/>
<path d="M94.1,32c0,0,11.2,1.5,16.2-6.3c-0.8,3.9-4.9,10.9-9.7,10.4"/>
<path d="M99.8,35.4c0,0,0.2,0.3,0.8,0.4c2.4,0.6,8.9,1.5,13.2-3.2c-1.2,3.2-6.7,10-9.6,7.1c-6.3-6.3-15.2-9.2-15.2-9.2l2.3,0.1
	C91.4,30.6,99.7,34.9,99.8,35.4z"/>
<path d="M27.2,30.7c0,0-8.6,0.6-12.3-5.7c0.5,3.1,3.6,8.5,7.3,8.2"/>
<path d="M22.9,32.5c0,0-11.1,2.2-16.5-5.4c1,3.9,5.6,10.6,10.2,9.8"/>
<path d="M17.5,36.1c0,0-0.2,0.3-0.8,0.5c-2.4,0.7-8.8,2-13.4-2.4c1.4,3.1,7.2,9.6,9.9,6.5c5.9-6.7,14.7-10.1,14.7-10.1l-2.3,0.2
	C25.6,30.9,17.6,35.6,17.5,36.1z"/>
</svg>
