<?xml version="1.0" encoding="utf-8"?>
<!-- Generator: Adobe Illustrator 20.1.0, SVG Export Plug-In . SVG Version: 6.00 Build 0)  -->
<svg version="1.1" id="Слой_1" xmlns="http://www.w3.org/2000/svg" xmlns:xlink="http://www.w3.org/1999/xlink" x="0px" y="0px"
	 width="130px" height="81px" viewBox="0 0 130 81" style="enable-background:new 0 0 130 81;" xml:space="preserve">
<style type="text/css">
	.st0{fill:#FFFFFF;}
	.st1{fill:#181919;}
	.st2{display:none;fill:#FFFFFF;}
	.st3{display:none;}
	.st4{display:inline;fill:#181919;}
</style>
<path class="st0" d="M99.1,0c-17.1,0-31,18.1-31,40.5S82,81,99.1,81S130,62.9,130,40.5S116.2,0,99.1,0L99.1,0z"/>
<path class="st1" d="M81.9,36.5c-1.7,0-3.1,1.8-3.1,4s1.4,4,3.1,4s3.1-1.8,3.1-4S83.6,36.5,81.9,36.5z"/>
<path class="st0" d="M30.9,0C13.8,0,0,18.1,0,40.5S13.8,81,30.9,81s30.9-18.1,30.9-40.5S48,0,30.9,0L30.9,0z"/>
<path class="st1" d="M14,36.5c-1.7,0-3.1,1.8-3.1,4s1.4,4,3.1,4s3.1-1.8,3.1-4S15.7,36.5,14,36.5z"/>
<ellipse class="st2" cx="38.2" cy="60.7" rx="3" ry="4"/>
<ellipse class="st2" cx="121.2" cy="60.7" rx="3" ry="4"/>
<g class="st3">
	<path class="st4" d="M144.9,40.5c0-27.6-17-50-38-50s-38,22.4-38,50c0,3.4,0.3,6.8,0.8,10c0,0-0.8,8,37.2,8s37.2-8,37.2-8
		C144.6,47.3,144.9,43.9,144.9,40.5z"/>
	<path class="st4" d="M61.1,40.5c0-27.6-17-50-38-50s-38,22.4-38,50c0,3.4,0.3,6.8,0.8,10c0,0-0.8,8,37.2,8s37.2-8,37.2-8
		C60.9,47.3,61.1,43.9,61.1,40.5z"/>
	<path class="st4" d="M106.9,90.5c18.4,0,33.7-17.2,37.2-40c0,0,0.8,5-37.2,5s-37.2-5-37.2-5C73.1,73.3,88.5,90.5,106.9,90.5z"/>
	<path class="st4" d="M23.1,90.5c18.4,0,33.7-17.2,37.2-40c0,0,0.8,5-37.2,5c-38.3,0-37.2-5-37.2-5C-10.6,73.3,4.8,90.5,23.1,90.5z"
		/>
</g>
<ellipse class="st0" cx="16.2" cy="38.8" rx="0.3" ry="0.3"/>
<ellipse class="st0" cx="83.9" cy="38.8" rx="0.3" ry="0.4"/>
</svg>
