<?xml version="1.0" encoding="utf-8"?>
<!-- Generator: Adobe Illustrator 20.1.0, SVG Export Plug-In . SVG Version: 6.00 Build 0)  -->
<svg version="1.1" id="Слой_1" xmlns="http://www.w3.org/2000/svg" xmlns:xlink="http://www.w3.org/1999/xlink" x="0px" y="0px"
	 width="112px" height="70.1px" viewBox="0 0 112 70.1" style="enable-background:new 0 0 112 70.1;" xml:space="preserve">
<style type="text/css">
	.st0{fill:#FFFFFF;}
	.st1{fill:#181919;}
	.st2{fill:#EEEED7;}
</style>
<path class="st0" d="M85.4,70.1c14.7,0,26.6-15.7,26.6-35.1S100.1,0,85.4,0S58.7,15.7,58.7,35.1S70.6,70.1,85.4,70.1L85.4,70.1z"/>
<path class="st1" d="M85.4,25.8c-5.4,0-9.8,5.8-9.8,13s4.4,13,9.8,13s9.8-5.8,9.8-13S90.8,25.8,85.4,25.8z"/>
<path class="st0" d="M26.6,70.1c14.7,0,26.6-15.7,26.6-35.1S41.4,0,26.6,0S0,15.7,0,35.1S11.9,70.1,26.6,70.1L26.6,70.1z"/>
<path class="st1" d="M26,25.8c-5.4,0-9.8,5.8-9.8,13s4.4,13,9.8,13s9.8-5.8,9.8-13S31.4,25.8,26,25.8z"/>
<ellipse class="st0" cx="31.1" cy="34.4" rx="2" ry="2.6"/>
<ellipse class="st0" cx="90.3" cy="34.2" rx="2" ry="2.6"/>
<g>
	<path class="st2" d="M112,35.1C112,15.7,100.1,0,85.4,0S58.7,15.7,58.7,35.1c0,2.4,0.2,4.7,0.5,7c0,0-0.5-40.9,26.1-40.9
		s26.1,40.9,26.1,40.9C111.8,39.8,112,37.5,112,35.1z"/>
	<path class="st2" d="M53.3,35.1C53.3,15.7,41.4,0,26.6,0S0,15.7,0,35.1c0,2.4,0.2,4.7,0.5,7c0,0-0.5-40.9,26.1-40.9
		s26.1,40.9,26.1,40.9C53.1,39.8,53.3,37.5,53.3,35.1z"/>
	<path class="st2" d="M85.4,70.1C98.3,70.1,109,58,111.5,42c0,0-3,24.8-26.1,24.8C62,66.8,59.3,42,59.3,42
		C61.7,58.1,72.5,70.1,85.4,70.1z"/>
	<path class="st2" d="M26.6,70.1C39.5,70.1,50.2,58,52.7,42c0,0-2.3,24.6-26.1,24.6C3.1,66.7,0.5,42.1,0.5,42.1
		C3,58.1,13.8,70.1,26.6,70.1z"/>
</g>
</svg>
