<?xml version="1.0" encoding="utf-8"?>
<!-- Generator: Adobe Illustrator 20.1.0, SVG Export Plug-In . SVG Version: 6.00 Build 0)  -->
<svg version="1.1" id="Слой_3" xmlns="http://www.w3.org/2000/svg" xmlns:xlink="http://www.w3.org/1999/xlink" x="0px" y="0px"
	 width="88px" height="58px" viewBox="0 0 88 58" style="enable-background:new 0 0 88 58;" xml:space="preserve">
<style type="text/css">
	.st0{fill:#FFFFFF;}
</style>
<path class="st0" d="M66.9,0C55.3,0,45.9,13,45.9,29s9.4,29,21.1,29S88,45,88,29S78.6,0,66.9,0L66.9,0z"/>
<path d="M59.4,8.9c-4.4,0-8,5.1-8,11.3s3.6,11.3,8,11.3s8-5.1,8-11.3S63.8,8.9,59.4,8.9z"/>
<path class="st0" d="M21.1,0C9.4,0,0,13,0,29s9.4,29,21.1,29s21.1-13,21.1-29S32.7,0,21.1,0L21.1,0z"/>
<path d="M13.5,8.9c-4.4,0-8,5.1-8,11.3s3.6,11.3,8,11.3s8-5.1,8-11.3S17.9,8.9,13.5,8.9z"/>
<ellipse class="st0" cx="19" cy="20.2" rx="1.8" ry="2.4"/>
<ellipse class="st0" cx="64.7" cy="20.2" rx="1.8" ry="2.4"/>
</svg>
