<?xml version="1.0" encoding="utf-8"?>
<!-- Generator: Adobe Illustrator 20.1.0, SVG Export Plug-In . SVG Version: 6.00 Build 0)  -->
<svg version="1.1" id="Слой_1" xmlns="http://www.w3.org/2000/svg" xmlns:xlink="http://www.w3.org/1999/xlink" x="0px" y="0px"
	 width="164px" height="135.8px" viewBox="0 0 164 135.8" style="enable-background:new 0 0 164 135.8;" xml:space="preserve">
<style type="text/css">
	.st0{display:none;fill:#EFEFD8;}
	.st1{fill:#181919;}
	.st2{fill:#FFFFFF;}
	.st3{fill:#0E0F0F;}
	.st4{display:none;}
	.st5{display:inline;fill:#181919;}
	.st6{fill:#19191A;}
</style>
<path class="st0" d="M121.7,30.6c-21,0-38,22.4-38,50s17,50,38,50s38-22.4,38-50S142.7,30.6,121.7,30.6L121.7,30.6z"/>
<path class="st1" d="M135.7,89.1c-4.1,0-7.5,4.5-7.5,10c0,5.5,3.4,10,7.5,10s7.5-4.5,7.5-10C143.2,93.6,139.8,89.1,135.7,89.1z"/>
<path class="st0" d="M38,30.6c-21,0-38,22.4-38,50s17,50,38,50s38-22.4,38-50S59,30.6,38,30.6L38,30.6z"/>
<path class="st1" d="M52.2,89.1c-4.1,0-7.5,4.5-7.5,10c0,5.5,3.4,10,7.5,10s7.5-4.5,7.5-10C59.7,93.6,56.4,89.1,52.2,89.1z"/>
<ellipse class="st2" cx="53" cy="100.8" rx="3" ry="4"/>
<ellipse class="st2" cx="136.1" cy="100.8" rx="3" ry="4"/>
<path class="st2" d="M124.8,29.8c-21.7,0-39.2,23.7-39.2,53s17.6,53,39.2,53s39.2-23.7,39.2-53S146.4,29.8,124.8,29.8L124.8,29.8z"
	/>
<path class="st3" d="M124.8,51.7c-13,0-23.5,14.5-23.5,32.3s10.5,32.3,23.5,32.3s23.5-14.5,23.5-32.3S137.7,51.7,124.8,51.7z"/>
<path class="st2" d="M39.2,29.8C17.6,29.8,0,53.5,0,82.8s17.6,53,39.2,53s39.2-23.7,39.2-53S60.9,29.8,39.2,29.8L39.2,29.8z"/>
<path class="st3" d="M39.2,51.1c-13.2,0-23.9,14.8-23.9,33s10.7,33,23.9,33s23.9-14.8,23.9-33S52.5,51.1,39.2,51.1z"/>
<path class="st2" d="M139.9,71.5c1.7,4.3,0.7,8.8-2.2,10c-2.9,1.2-4.2-2.3-5.9-6.7c-1.7-4.3-3.3-7.7-0.3-9
	C134.4,64.7,138.2,67.2,139.9,71.5z"/>
<ellipse class="st2" cx="126.7" cy="76.7" rx="1.9" ry="1.9"/>
<path class="st2" d="M55.4,71.5c1.7,4.3,0.7,8.8-2.2,10c-2.9,1.2-4.2-2.3-5.9-6.7c-1.7-4.3-3.3-7.7-0.3-9
	C49.9,64.7,53.7,67.2,55.4,71.5z"/>
<ellipse class="st2" cx="42.2" cy="76.7" rx="1.9" ry="1.9"/>
<g class="st4">
	<path class="st5" d="M164,82.8c0-29.3-17.5-53-39-53s-39,23.7-39,53c0,3.6,0.3,7.2,0.8,10.6c0,0-0.8,8.5,38.2,8.5
		s38.2-8.5,38.2-8.5C163.7,90,164,86.4,164,82.8z"/>
	<path class="st5" d="M78,82.8c0-29.3-17.5-53-39-53S0,53.5,0,82.8c0,3.6,0.3,7.2,0.8,10.6c0,0-0.8,8.5,38.2,8.5s38.2-8.5,38.2-8.5
		C77.8,90,78,86.4,78,82.8z"/>
	<path class="st5" d="M125,135.8c18.9,0,34.6-18.2,38.2-42.4c0,0,0.8,5.3-38.2,5.3s-38.2-5.3-38.2-5.3
		C90.3,117.6,106.1,135.8,125,135.8z"/>
	<path class="st5" d="M39,135.8c18.9,0,34.6-18.2,38.2-42.4c0,0,0.8,5.3-38.2,5.3c-39.3,0-38.2-5.3-38.2-5.3
		C4.4,117.6,20.1,135.8,39,135.8z"/>
</g>
<polygon class="st6" points="133.6,0 121.7,14.7 129.3,13 125.8,23.7 137.9,8.1 130.6,9.5 "/>
<polygon class="st6" points="34.5,-0.5 30.2,17.9 36.3,13 37.8,24.2 42,4.9 36,9.3 "/>
</svg>
