<?xml version="1.0" encoding="utf-8"?>
<!-- Generator: Adobe Illustrator 20.1.0, SVG Export Plug-In . SVG Version: 6.00 Build 0)  -->
<svg version="1.1" id="Слой_1" xmlns="http://www.w3.org/2000/svg" xmlns:xlink="http://www.w3.org/1999/xlink" x="0px" y="0px"
	 width="86px" height="53.8px" viewBox="0 0 86 53.8" style="enable-background:new 0 0 86 53.8;" xml:space="preserve">
<style type="text/css">
	.st0{fill:#FFFFFF;}
	.st1{fill:#181919;}
	.st2{fill:#EEEED7;}
</style>
<path class="st0" d="M65.5,0C54.2,0,45.1,12.1,45.1,26.9s9.2,26.9,20.5,26.9S86,41.8,86,26.9S76.8,0,65.5,0L65.5,0z"/>
<path class="st1" d="M77.7,12.1c-3.3,0-6.1,3.6-6.1,8.1s2.7,8.1,6.1,8.1s6.1-3.6,6.1-8.1S81,12.1,77.7,12.1z"/>
<path class="st0" d="M20.5,0C9.2,0,0,12.1,0,26.9s9.2,26.9,20.5,26.9s20.5-12.1,20.5-26.9S31.8,0,20.5,0L20.5,0z"/>
<path class="st1" d="M31.6,10.8c-4.1,0-7.3,4.4-7.3,9.8s3.3,9.8,7.3,9.8S39,26,39,20.6S35.7,10.8,31.6,10.8z"/>
<ellipse class="st0" cx="36.6" cy="19.8" rx="1.6" ry="2.2"/>
<ellipse class="st0" cx="81.2" cy="19.8" rx="1.6" ry="2.2"/>
<g>
	<path class="st2" d="M86,26.9c0,14.9-9.2,26.9-20.5,26.9c-11.3,0-20.5-12.1-20.5-26.9c0-1.8,0.1-3.6,0.4-5.4
		c0,0-0.4,23.3,20.1,23.3s20.1-23.3,20.1-23.3C85.9,23.3,86,25.1,86,26.9z"/>
	<path class="st2" d="M40.9,26.9c0,14.9-9.2,26.9-20.5,26.9S0,41.8,0,26.9c0-1.8,0.1-3.6,0.4-5.4c0,0-0.4,30.3,20.1,30.3
		s20.1-30.3,20.1-30.3C40.8,23.3,40.9,25.1,40.9,26.9z"/>
	<path class="st2" d="M65.5,0c9.9,0,18.2,9.3,20.1,21.5c0,0,0.4-4.6-20.1-4.6s-20.1,4.6-20.1,4.6C47.4,9.3,55.6,0,65.5,0z"/>
	<path class="st2" d="M20.5,0c9.9,0,18.2,9.3,20.1,21.5c0,0,0.4-4.6-20.1-4.6c-20.6,0-20.1,4.6-20.1,4.6C2.3,9.3,10.6,0,20.5,0z"/>
</g>
</svg>
