<?xml version="1.0" encoding="utf-8"?>
<!-- Generator: Adobe Illustrator 20.1.0, SVG Export Plug-In . SVG Version: 6.00 Build 0)  -->
<svg version="1.1" id="Слой_1" xmlns="http://www.w3.org/2000/svg" xmlns:xlink="http://www.w3.org/1999/xlink" x="0px" y="0px"
	 width="132px" height="84px" viewBox="0 0 132 84" style="enable-background:new 0 0 132 84;" xml:space="preserve">
<style type="text/css">
	.st0{fill:#FFFFFF;}
	.st1{fill:#0E0F0F;}
	.st2{fill:#EEEED7;}
</style>
<path class="st0" d="M100.6,0C83.2,0,69.2,18.8,69.2,42s14.1,42,31.4,42S132,65.2,132,42S117.9,0,100.6,0L100.6,0z"/>
<path class="st0" d="M31.4,0C14.1,0,0,18.8,0,42s14.1,42,31.4,42s31.4-18.8,31.4-42S48.8,0,31.4,0L31.4,0z"/>
<path class="st1" d="M100.6,28.8c-6.7,0-12.2,5.9-12.2,13.2s5.5,13.2,12.2,13.2c6.7,0,12.2-5.9,12.2-13.2S107.3,28.8,100.6,28.8z"/>
<path class="st1" d="M31,28.3c-7,0-12.6,6.1-12.6,13.7S24,55.7,31,55.7S43.6,49.6,43.6,42S37.9,28.3,31,28.3z"/>
<polygon class="st0" points="106.4,32.7 100.4,40.3 104.2,39.4 102.5,44.9 108.6,36.9 104.9,37.6 "/>
<polygon class="st0" points="38.4,32.7 32.4,40.3 36.3,39.4 34.5,44.9 40.6,36.9 36.9,37.6 "/>
<g>
	<path class="st2" d="M132,42c0-23.2-14.1-42-31.4-42S69.2,18.8,69.2,42c0,2.9,0.2,5.7,0.6,8.4c0,0-0.6-16.2,30.8-16.2
		s30.8,16.2,30.8,16.2C131.8,47.7,132,44.9,132,42z"/>
	<path class="st2" d="M62.8,42c0-23.2-14.1-42-31.4-42S0,18.8,0,42c0,2.9,0.2,5.7,0.6,8.4c0,0-0.6-16.2,30.8-16.2
		s30.8,16.2,30.8,16.2C62.6,47.7,62.8,44.9,62.8,42z"/>
	<path class="st2" d="M100.6,84c15.2,0,27.9-14.4,30.8-33.6c0,0,0.6,10.3-30.8,10.3S69.8,50.4,69.8,50.4C72.7,69.6,85.4,84,100.6,84
		z"/>
	<path class="st2" d="M31.4,84c15.2,0,27.9-14.4,30.8-33.6c0,0,0.6,10.3-30.8,10.3c-31.6,0-30.8-10.3-30.8-10.3
		C3.5,69.6,16.2,84,31.4,84z"/>
</g>
</svg>
