<?xml version="1.0" encoding="utf-8"?>
<!-- Generator: Adobe Illustrator 20.1.0, SVG Export Plug-In . SVG Version: 6.00 Build 0)  -->
<svg version="1.1" id="Слой_1" xmlns="http://www.w3.org/2000/svg" xmlns:xlink="http://www.w3.org/1999/xlink" x="0px" y="0px"
	 width="112px" height="70.1px" viewBox="0 0 112 70.1" style="enable-background:new 0 0 112 70.1;" xml:space="preserve">
<style type="text/css">
	.st0{fill:#FFFFFF;}
	.st1{fill:#181919;}
	.st2{fill:#EEEED7;}
</style>
<path class="st0" d="M85.4,70.1c14.7,0,26.6-15.7,26.6-35.1S100.1,0,85.4,0S58.7,15.7,58.7,35.1S70.6,70.1,85.4,70.1L85.4,70.1z"/>
<path class="st1" d="M70.9,30.9c-4.3,0-7.8,4.7-7.8,10.5s3.5,10.5,7.8,10.5s7.8-4.7,7.8-10.5S75.2,30.9,70.9,30.9z"/>
<path class="st0" d="M26.6,70.1c14.7,0,26.6-15.7,26.6-35.1S41.4,0,26.6,0S0,15.7,0,35.1S11.9,70.1,26.6,70.1L26.6,70.1z"/>
<path class="st1" d="M42.3,31.3c-4.3,0-7.7,4.6-7.7,10.3s3.5,10.3,7.7,10.3S50,47.3,50,41.6S46.6,31.3,42.3,31.3z"/>
<ellipse class="st0" cx="46.4" cy="38" rx="1.5" ry="2.1"/>
<ellipse class="st0" cx="74.8" cy="37.7" rx="1.6" ry="2.1"/>
<g>
	<path class="st2" d="M112,35.1C112,15.7,100.1,0,85.4,0S58.7,15.7,58.7,35.1c0,2.4,0.2,4.7,0.5,7c0,0-0.5-40.9,26.1-40.9
		s26.1,40.9,26.1,40.9C111.8,39.8,112,37.5,112,35.1z"/>
	<path class="st2" d="M53.3,35.1C53.3,15.7,41.4,0,26.6,0S0,15.7,0,35.1c0,2.4,0.2,4.7,0.5,7c0,0,4.9-25.1,31.4-27
		c26.6-1.9,20.9,27,20.9,27C53.1,39.8,53.3,37.5,53.3,35.1z"/>
	<path class="st2" d="M85.4,70.1C98.3,70.1,109,58,111.5,42c0,0-3,6.9-26.1,6.9C62,48.9,59.3,42,59.3,42
		C61.7,58.1,72.5,70.1,85.4,70.1z"/>
	<path class="st2" d="M26.6,70.1C39.5,70.1,50.2,58,52.7,42c0,0-2.3,6.5-26.1,6.5C3.1,48.5,0.5,42,0.5,42
		C3,58.1,13.8,70.1,26.6,70.1z"/>
</g>
</svg>
