<?xml version="1.0" encoding="utf-8"?>
<!-- Generator: Adobe Illustrator 20.1.0, SVG Export Plug-In . SVG Version: 6.00 Build 0)  -->
<svg version="1.1" id="Слой_1" xmlns="http://www.w3.org/2000/svg" xmlns:xlink="http://www.w3.org/1999/xlink" x="0px" y="0px"
	 width="214.9px" height="99.6px" viewBox="0 0 214.9 99.6" style="enable-background:new 0 0 214.9 99.6;" xml:space="preserve">
<style type="text/css">
	.st0{fill:#FFFFFF;}
	.st1{fill:#181919;}
	.st2{display:none;}
	.st3{display:inline;fill:#181919;}
</style>
<path class="st0" d="M137.9,13.7c-15.2,0-27.6,16.2-27.6,36.1S122.6,86,137.9,86s27.6-16.2,27.6-36.1S153.1,13.7,137.9,13.7
	L137.9,13.7z"/>
<path class="st1" d="M131.1,42.2c-2.8,0-5.1,3-5.1,6.8c0,3.8,2.3,6.8,5.1,6.8c2.8,0,5.1-3,5.1-6.8C136.2,45.2,133.9,42.2,131.1,42.2
	z"/>
<path class="st0" d="M77.1,13.7c-15.2,0-27.6,16.2-27.6,36.1S61.8,86,77.1,86s27.6-16.2,27.6-36.1S92.3,13.7,77.1,13.7L77.1,13.7z"
	/>
<path class="st1" d="M85.2,42.4c-2.7,0-5,3-5,6.6c0,3.7,2.2,6.6,5,6.6c2.7,0,5-3,5-6.6C90.2,45.3,87.9,42.4,85.2,42.4z"/>
<ellipse class="st0" cx="87.4" cy="46.1" rx="1" ry="1.3"/>
<ellipse class="st0" cx="133.6" cy="46" rx="1" ry="1.4"/>
<g class="st2">
	<path class="st3" d="M187.4,39c0-27.6-17-50-38-50s-38,22.4-38,50c0,3.4,0.3,6.8,0.8,10c0,0-0.8,8,37.2,8s37.2-8,37.2-8
		C187.1,45.8,187.4,42.4,187.4,39z"/>
	<path class="st3" d="M103.7,39c0-27.6-17-50-38-50s-38,22.4-38,50c0,3.4,0.3,6.8,0.8,10c0,0-0.8,8,37.2,8s37.2-8,37.2-8
		C103.4,45.8,103.7,42.4,103.7,39z"/>
	<path class="st3" d="M149.4,89c18.4,0,33.7-17.2,37.2-40c0,0,0.8,5-37.2,5s-37.2-5-37.2-5C115.7,71.8,131,89,149.4,89z"/>
	<path class="st3" d="M65.7,89c18.4,0,33.7-17.2,37.2-40c0,0,0.8,5-37.2,5c-38.3,0-37.2-5-37.2-5C32,71.8,47.3,89,65.7,89z"/>
</g>
<path class="st1" d="M214.9,45.4H212c-2.3-25.2-23.6-45-49.4-45C141.2,0.4,123,14,116,32.9c-5.3-2.1-11.2-2.1-16.5-0.1
	c-7-18.9-25.2-32.4-46.5-32.4c-25.8,0-47.1,19.8-49.4,45H0v9.2h3.5c2.3,25.2,23.6,45,49.4,45c27.4,0,49.6-22.3,49.6-49.6
	c0-2.8-0.2-5.5-0.7-8.2c3.7-1.8,8.1-1.7,11.8,0.1c-0.4,2.6-0.7,5.3-0.7,8.1c0,27.4,22.3,49.6,49.6,49.6c25.8,0,47.1-19.8,49.4-45
	h2.9V45.4z M52.9,90.4c-22.3,0-40.4-18.1-40.4-40.4S30.7,9.6,52.9,9.6c22.3,0,40.4,18.1,40.4,40.4S75.2,90.4,52.9,90.4z M162.6,90.4
	c-22.3,0-40.4-18.1-40.4-40.4s18.1-40.4,40.4-40.4S203,27.7,203,50S184.9,90.4,162.6,90.4z"/>
</svg>
