<?xml version="1.0" encoding="utf-8"?>
<!-- Generator: Adobe Illustrator 20.1.0, SVG Export Plug-In . SVG Version: 6.00 Build 0)  -->
<svg version="1.1" id="Слой_1" xmlns="http://www.w3.org/2000/svg" xmlns:xlink="http://www.w3.org/1999/xlink" x="0px" y="0px"
	 width="130px" height="84px" viewBox="0 0 130 84" style="enable-background:new 0 0 130 84;" xml:space="preserve">
<style type="text/css">
	.st0{fill:#FFFFFF;}
	.st1{fill:#EFEFD8;}
	.st2{fill:#181919;}
</style>
<path class="st0" d="M99,0C81.9,0,68.1,18.8,68.1,42S81.9,84,99,84s30.9-18.8,30.9-42S116.1,0,99,0L99,0z"/>
<g>
	<path class="st1" d="M130,42c0-23.2-13.9-42-31-42S68.1,18.8,68.1,42c0,2.9,0.2,5.7,0.6,8.4c0,0-4.1-32.8,30.3-32.8
		c36.2,0,30.3,32.8,30.3,32.8C129.7,47.7,130,44.9,130,42z"/>
	<path class="st1" d="M99,84c15,0,27.5-14.4,30.3-33.6c0,0-4.1,20.3-30.3,20.3c-25.3,0-30.3-20.3-30.3-20.3C71.6,69.6,84.1,84,99,84
		z"/>
</g>
<path class="st2" d="M78.4,36.9c-2.8,0-5.1,2.3-5.1,5.1s2.3,5.1,5.1,5.1s5.1-2.3,5.1-5.1C83.5,39.2,81.2,36.9,78.4,36.9z"/>
<path class="st0" d="M30.9,0C13.8,0,0,18.8,0,42s13.8,42,30.9,42s30.9-18.8,30.9-42S48,0,30.9,0L30.9,0z"/>
<path class="st2" d="M38.7,18.9c-9.2,0-16.8,10.2-16.8,23.1s7.6,23.1,16.8,23.1S55.5,54.9,55.5,42C55.5,29.1,48,18.9,38.7,18.9z"/>
<g>
	<path class="st1" d="M61.9,42c0-23.2-13.9-42-31-42S0,18.8,0,42c0,2.9,0.2,5.7,0.6,8.4C0.6,50.4-3.5,0,30.9,0
		c36.2,0,30.3,50.4,30.3,50.4C61.6,47.7,61.9,44.9,61.9,42z"/>
	<path class="st1" d="M30.9,84c15,0,27.5-14.4,30.3-33.6c0,0-4.1,32.9-30.3,32.9C5.6,83.3,0.6,50.4,0.6,50.4C3.5,69.6,16,84,30.9,84
		z"/>
</g>
<polygon class="st0" points="76.2,39.6 75.3,40.7 75.9,40.5 75.6,41.3 76.5,40.2 76,40.3 "/>
<polygon class="st0" points="49.8,28.7 38.3,43.3 45.7,41.6 42.3,52.2 54,36.7 46.9,38.1 "/>
</svg>
