<?xml version="1.0" encoding="utf-8"?>
<!-- Generator: Adobe Illustrator 20.1.0, SVG Export Plug-In . SVG Version: 6.00 Build 0)  -->
<svg version="1.1" id="Слой_1" xmlns="http://www.w3.org/2000/svg" xmlns:xlink="http://www.w3.org/1999/xlink" x="0px" y="0px"
	 width="130px" height="81px" viewBox="0 0 130 81" style="enable-background:new 0 0 130 81;" xml:space="preserve">
<style type="text/css">
	.st0{fill:#FFFFFF;}
	.st1{fill:#181919;}
	.st2{display:none;}
	.st3{display:inline;fill:#181919;}
</style>
<path class="st0" d="M99.1,0C82,0,68.1,18.1,68.1,40.5S82,81,99.1,81S130,62.9,130,40.5S116.2,0,99.1,0L99.1,0z"/>
<path class="st1" d="M99.1,16.2c-10.1,0-18.3,10.9-18.3,24.3s8.2,24.3,18.3,24.3s18.3-10.9,18.3-24.3S109.2,16.2,99.1,16.2z"/>
<path class="st0" d="M30.9,0C13.8,0,0,18.1,0,40.5S13.8,81,30.9,81s30.9-18.1,30.9-40.5S48,0,30.9,0L30.9,0z"/>
<path class="st1" d="M30.9,16.1c-10.2,0-18.4,10.9-18.4,24.4s8.2,24.4,18.4,24.4S49.3,54,49.3,40.5S41.1,16.1,30.9,16.1z"/>
<ellipse class="st0" cx="43.2" cy="34.4" rx="2.4" ry="3.2"/>
<ellipse class="st0" cx="111.4" cy="34.4" rx="2.4" ry="3.2"/>
<g class="st2">
	<path class="st3" d="M144.9,40.5c0-27.6-17-50-38-50s-38,22.4-38,50c0,3.4,0.3,6.8,0.8,10c0,0-0.8,8,37.2,8s37.2-8,37.2-8
		C144.6,47.3,144.9,43.9,144.9,40.5z"/>
	<path class="st3" d="M61.1,40.5c0-27.6-17-50-38-50s-38,22.4-38,50c0,3.4,0.3,6.8,0.8,10c0,0-0.8,8,37.2,8s37.2-8,37.2-8
		C60.9,47.3,61.1,43.9,61.1,40.5z"/>
	<path class="st3" d="M106.9,90.5c18.4,0,33.7-17.2,37.2-40c0,0,0.8,5-37.2,5s-37.2-5-37.2-5C73.1,73.3,88.5,90.5,106.9,90.5z"/>
	<path class="st3" d="M23.1,90.5c18.4,0,33.7-17.2,37.2-40c0,0,0.8,5-37.2,5c-38.3,0-37.2-5-37.2-5C-10.6,73.3,4.8,90.5,23.1,90.5z"
		/>
</g>
</svg>
