<?xml version="1.0" encoding="utf-8"?>
<!-- Generator: Adobe Illustrator 20.1.0, SVG Export Plug-In . SVG Version: 6.00 Build 0)  -->
<svg version="1.1" id="Слой_1" xmlns="http://www.w3.org/2000/svg" xmlns:xlink="http://www.w3.org/1999/xlink" x="0px" y="0px"
	 width="160px" height="100px" viewBox="0 0 160 100" style="enable-background:new 0 0 160 100;" xml:space="preserve">
<style type="text/css">
	.st0{fill:#EFEFD8;}
	.st1{fill:#181919;}
	.st2{fill:#FFFFFF;}
</style>
<path class="st0" d="M122,0c-21,0-38,22.4-38,50s17,50,38,50s38-22.4,38-50S143,0,122,0L122,0z"/>
<path class="st1" d="M111,22.5c-11.4,0-20.7,12.3-20.7,27.5s9.2,27.5,20.7,27.5s20.7-12.3,20.7-27.5S122.4,22.5,111,22.5z"/>
<path class="st0" d="M38.3,0c-21,0-38,22.4-38,50s17,50,38,50s38-22.4,38-50S59.3,0,38.3,0L38.3,0z"/>
<path class="st1" d="M62.1,44c-3.5,0-6.3,2.7-6.3,6s2.8,6,6.3,6c3.5,0,6.3-2.7,6.3-6S65.6,44,62.1,44z"/>
<g>
	<path class="st1" d="M76.3,50c0-27.6-17-50-38-50s-38,22.4-38,50c0,3.4,0.3,6.8,0.8,10c0,0-0.8-37.3,37.2-37.3S75.5,60,75.5,60
		C76,56.8,76.3,53.4,76.3,50z"/>
	<path class="st1" d="M38.3,100c18.4,0,33.7-17.2,37.2-40c0,0-1.1,25-37.2,25C1.6,85,1.1,60,1.1,60C4.6,82.8,19.9,100,38.3,100z"/>
</g>
<polygon class="st2" points="106.9,34.1 92.8,51.6 101.8,49.5 97.7,62.2 112.1,43.7 103.4,45.4 "/>
</svg>
