<?xml version="1.0" encoding="utf-8"?>
<!-- Generator: Adobe Illustrator 20.1.0, SVG Export Plug-In . SVG Version: 6.00 Build 0)  -->
<svg version="1.1" id="Слой_1" xmlns="http://www.w3.org/2000/svg" xmlns:xlink="http://www.w3.org/1999/xlink" x="0px" y="0px"
	 width="160px" height="100px" viewBox="0 0 160 100" style="enable-background:new 0 0 160 100;" xml:space="preserve">
<style type="text/css">
	.st0{fill:#EFEFD8;}
	.st1{fill:#181919;}
	.st2{fill:#FFFFFF;}
</style>
<path class="st0" d="M122,0c-21,0-38,22.4-38,50s17,50,38,50s38-22.4,38-50S143,0,122,0L122,0z"/>
<path class="st1" d="M128.5,48.6c-8.3,0-15,9-15,20s6.7,20,15,20s15-9,15-20S136.7,48.6,128.5,48.6z"/>
<path class="st0" d="M38.3,0c-21,0-38,22.4-38,50s17,50,38,50s38-22.4,38-50S59.3,0,38.3,0L38.3,0z"/>
<path class="st1" d="M45.2,48.6c-8.3,0-15,9-15,20s6.7,20,15,20s15-9,15-20S53.5,48.6,45.2,48.6z"/>
<ellipse class="st2" cx="53.3" cy="70.2" rx="3" ry="4"/>
<ellipse class="st2" cx="136.4" cy="70.2" rx="3" ry="4"/>
<g>
	<path class="st1" d="M160,50c0-27.6-17-50-38-50S84,22.4,84,50c0,3.4,0.3,6.8,0.8,10c0,0-0.8-25.2,37.2-25.2S159.2,60,159.2,60
		C159.7,56.8,160,53.4,160,50z"/>
	<path class="st1" d="M76.3,50c0-27.6-17-50-38-50s-38,22.4-38,50c0,3.4,0.3,6.8,0.8,10c0,0-0.8-25.2,37.2-25.2S75.5,60,75.5,60
		C76,56.8,76.3,53.4,76.3,50z"/>
	<path class="st1" d="M122,100c18.4,0,33.7-17.2,37.2-40c0,0,0.8,17-37.2,17S84.8,60,84.8,60C88.3,82.8,103.6,100,122,100z"/>
	<path class="st1" d="M38.3,100c18.4,0,33.7-17.2,37.2-40c0,0,0.8,17-37.2,17C0,77,1.1,60,1.1,60C4.6,82.8,19.9,100,38.3,100z"/>
</g>
</svg>
