<?xml version="1.0" encoding="utf-8"?>
<!-- Generator: Adobe Illustrator 20.1.0, SVG Export Plug-In . SVG Version: 6.00 Build 0)  -->
<svg version="1.1" id="Layer_1" xmlns="http://www.w3.org/2000/svg" xmlns:xlink="http://www.w3.org/1999/xlink" x="0px" y="0px"
	 width="220px" height="26px" viewBox="0 0 220 26" style="enable-background:new 0 0 220 26;" xml:space="preserve">
<g>
	<polygon points="198.2,11.3 198.2,5.7 194.9,10.2 189.6,8.5 192.9,13 189.6,17.5 194.9,15.8 198.2,20.3 198.2,14.7 203.6,13 	"/>
	<polygon points="208.3,0 198.3,0 210,13 198.3,26 208.3,26 220,13 	"/>
	<path d="M11.4,7.7c1.6,0,3.1,0.8,4.2,2.1l0.4,0.5l4.9-3.4l-0.4-0.6c-2.2-2.7-5.5-4.2-9-4.2C5.1,2,0,6.9,0,12.9s5.1,10.9,11.4,10.9
		c3.5,0,6.8-1.5,9-4.2l0.4-0.6l-4.9-3.4l-0.4,0.5c-1.1,1.3-2.6,2-4.2,2c-2.9,0-5.4-2.4-5.4-5.2C6,10.1,8.5,7.7,11.4,7.7z"/>
	<polygon points="64.2,14.2 55,3 49.2,3 49.2,23 55.2,23 55.2,11.6 63.1,23 69.2,23 69.2,3 64.2,3 	"/>
	<path d="M85.2,17.2L85.2,17.2c0,0.2-0.4,0.2-0.5,0.2c-0.1,0-0.3,0.2-0.4,0L79.7,3h-6.3l6.7,20h8.9l6.7-20h-6.3L85.2,17.2z"/>
	<path d="M135.8,14.7c2.2-1.3,3.4-3.3,3.2-5.9c-0.3-3.4-3.2-5.8-6.8-5.8h-10v20h5v-7h2.5c0.2,0,0.5-0.1,0.6,0.1l3.5,6.9h6.2
		L135.8,14.7z M132.1,10h-4.9V8h4.9c0.7,0,1.2,0.3,1.2,1C133.3,9.7,132.8,10,132.1,10z"/>
	<polygon points="166.2,23 182.2,23 182.2,18 171.2,18 171.2,15 181.2,15 181.2,10 171.2,10 171.2,8 182.2,8 182.2,3 166.2,3 	"/>
	<path d="M153.6,10.3c-2.9-0.7-3.4-1.1-3.4-2.1V8.2c0-0.8,0.4-1.4,1.9-1.4c1.9,0,3.3,0.6,5.4,1.8l3.2-3.9C158.4,3,155.8,2,152.2,2
		c-5.1,0-8,2.8-8,6.8v0.1c0,4.3,3.2,5.6,7.7,6.6c2.9,0.7,3.3,1.1,3.3,2v0.1c0,0.9-0.8,1.4-2.4,1.4c-2.4,0-4.7-0.9-6.8-2.5l-3.2,3.9
		c2.6,2.3,6.2,3.5,9.9,3.5c5.1,0,8.5-2.6,8.5-6.9v-0.1C161.2,13,158.5,11.4,153.6,10.3z"/>
	<path d="M34.1,2C28,2,23,6.9,23,12.9c0,6,5,10.9,11.1,10.9c6.1,0,11.1-4.9,11.1-10.9C45.2,6.9,40.2,2,34.1,2z M34.1,18.1
		c-2.9,0-5.2-2.3-5.2-5.2s2.3-5.2,5.2-5.2c2.9,0,5.2,2.3,5.2,5.2S37,18.1,34.1,18.1z"/>
	<polygon points="99.2,23 116.2,23 116.2,18 105.2,18 105.2,15 115.2,15 115.2,10 105.2,10 105.2,8 116.2,8 116.2,3 99.2,3 	"/>
</g>
</svg>
