<?xml version="1.0" encoding="utf-8"?>
<!-- Generator: Adobe Illustrator 20.1.0, SVG Export Plug-In . SVG Version: 6.00 Build 0)  -->
<svg version="1.1" id="Слой_1" xmlns="http://www.w3.org/2000/svg" xmlns:xlink="http://www.w3.org/1999/xlink" x="0px" y="0px"
	 width="220px" height="41.5px" viewBox="0 0 220 41.5" style="enable-background:new 0 0 220 41.5;" xml:space="preserve">
<style type="text/css">
	.st0{fill-rule:evenodd;clip-rule:evenodd;}
</style>
<path class="st0" d="M215.8,27.9v-0.5h0.5c0.2,0,0.5,0,0.5,0.2c0,0.2-0.2,0.2-0.5,0.2H215.8L215.8,27.9z M215.6,29.1h0.2v-1h0.2
	c0.2,0,0.2,0.2,0.5,0.7l0.2,0.2h0.5l-0.2-0.5c-0.2-0.2-0.5-0.5-0.5-0.5l0,0c0.2,0,0.5-0.2,0.5-0.5c0-0.2-0.2-0.5-0.7-0.5h-0.7V29.1
	L215.6,29.1z M217.8,28.1c0,0.7-0.5,1.5-1.5,1.5c-1,0-1.5-0.7-1.5-1.5c0-1,0.5-1.7,1.5-1.7C217.3,26.4,217.8,27.2,217.8,28.1
	L217.8,28.1z M218.3,28.1c0-1.2-1-2-2-2c-1,0-2,0.7-2,2c0,1,1,1.7,2,1.7C217.3,29.9,218.3,29.1,218.3,28.1L218.3,28.1z"/>
<path class="st0" d="M83.2,31.6c8.4,0,13.6-5.9,13.6-13.3c0-7.7-5.2-12.3-13.3-12.3c-9.6,0-13.3,7.2-13.3,12.8
	C70.1,24.4,73.8,31.6,83.2,31.6L83.2,31.6z M84.7,29.9c-6.4,0-10.1-5.4-10.1-12.1c0-8.1,4.2-10.4,7.9-10.4c5.4,0,9.6,4.7,9.6,11.9
	C92.1,28.9,86.9,29.9,84.7,29.9L84.7,29.9z"/>
<path class="st0" d="M114.1,31.6c8.4,0,13.6-5.9,13.6-13.3c0-7.7-5.2-12.3-13.3-12.3c-9.6,0-13.3,7.2-13.3,12.8
	C101,24.4,104.7,31.6,114.1,31.6L114.1,31.6z M115.3,29.9c-6.2,0-9.9-5.4-9.9-12.1c0-8.1,4.2-10.4,7.9-10.4c5.4,0,9.6,4.7,9.6,11.9
	C123,28.9,117.8,29.9,115.3,29.9L115.3,29.9z"/>
<path class="st0" d="M181.5,31.6c8.1,0,13.3-5.9,13.3-13.3c0-7.4-4.9-12.1-13.1-12.1c-9.6,0-13.3,7.2-13.3,12.6
	C168.4,24.4,172.1,31.6,181.5,31.6L181.5,31.6z M182.7,29.9c-6.2,0-9.9-5.4-9.9-12.1c0-8.1,4.2-10.1,7.9-10.1
	c5.4,0,9.6,4.4,9.6,11.9C190.4,28.9,184.9,29.9,182.7,29.9L182.7,29.9z"/>
<path class="st0" d="M54.8,16c0-0.5,0.2-0.5,0.5-0.5c0.5,0,4.9,0,5.9,0.2c1.2,0,1.7,0.7,2,1.2c0.2,0.5,0.2,1,0.2,1.5
	c0,0.2,0.2,0.5,0.5,0.5s0.2-0.5,0.2-0.7c0-0.2,0-2.2,0.2-3c0-1.2,0.2-2.2,0.2-2.5c0-0.2,0-0.5-0.2-0.5c-0.2,0-0.2,0.2-0.5,0.5
	c-0.5,0.5-1,0.7-1.7,0.7c-0.5,0-1.2,0-1.7,0h-5.2c-0.2,0-0.5,0-0.5-0.2V3c0-0.2,0.2-0.5,0.5-0.5l6.2,0.2C63,2.7,64,3.2,64.2,4
	c0.2,0.5,0.2,1,0.2,1.5c0,0.5,0,0.5,0.5,0.5c0.2,0,0.2-0.2,0.2-0.5c0.2-0.5,0.2-3,0.2-3.2c0.2-1,0.2-1.5,0.2-2c0,0,0-0.2-0.2-0.2
	c-0.2,0-0.2,0.2-0.5,0.2c-0.5,0-1,0-1.7,0.2c-1,0-9.1,0-10.6,0c-1.2,0-4-0.2-5.9-0.2c-0.7,0-1,0.2-1,0.5C45.7,1,45.9,1,46.4,1
	c0.5,0,1.2,0,1.5,0.2c1.5,0.2,1.7,0.7,1.7,2.2c0.2,1.2,0.2,2.5,0.2,8.6v7.2c0,4,0,6.9-0.2,8.6c-0.2,1.2-0.5,2-1.2,2.2
	c-0.2,0-0.7,0.2-1.5,0.2c-0.5,0-0.5,0-0.5,0.2c0,0.2,0.2,0.5,0.7,0.5c1.5,0,4.2-0.2,5.2-0.2c1,0,3.7,0.2,6.2,0.2c0.5,0,1-0.2,1-0.5
	c0-0.2-0.2-0.2-0.7-0.2s-1.5-0.2-2-0.2c-1.2-0.2-1.5-1-1.7-2.2c-0.2-1.7-0.2-4.7-0.2-8.6V16L54.8,16z"/>
<path class="st0" d="M138.5,21.7c0,3,0,5.4-0.2,6.9c0,1-0.2,1.7-1,1.7c-0.2,0-0.5,0.2-1,0.2c-0.5,0-0.5,0-0.5,0.2
	c0,0.2,0,0.2,0.5,0.2c1.2,0,3.5,0,4.2,0c1,0,3,0,5.2,0c0.2,0,0.5,0,0.5-0.2c0-0.2-0.2-0.2-0.5-0.2c-0.5,0-1.2-0.2-1.7-0.2
	c-1,0-1.2-0.7-1.2-1.7c-0.2-1.5-0.2-4-0.2-6.9V8.1l4.2,0.2c3,0,3.7,1,4,1.7v0.5c0,0.5,0,0.5,0.2,0.5c0.2,0,0.2-0.2,0.5-0.5
	c0-0.7,0-3.2,0-3.7c0-0.5,0-0.7-0.2-0.7s-0.5,0-1,0.2c-0.5,0-1.2,0-2.2,0h-12.8c-1.2,0-2.5,0-3.5,0c-0.7-0.2-1-0.5-1.2-0.5
	c-0.2,0-0.2,0.2-0.5,0.7c0,0.2-0.7,3.2-0.7,3.7c0,0.2,0.2,0.5,0.5,0.5c0,0,0.2-0.2,0.2-0.5c0-0.2,0.2-0.5,0.5-1c0.5-0.7,1.2-1,3.2-1
	l4.9-0.2V21.7L138.5,21.7z"/>
<path class="st0" d="M157.5,24c0,7.9,0,11.9-3.2,15.1c-0.7,0.7-1.5,1.2-2,1.5c-0.5,0.5-0.7,0.5-0.7,0.7s0,0.2,0.2,0.2
	c0.2,0,0.5,0,0.7-0.2c1-0.2,1.5-0.5,2.2-1c3.7-2.5,5.9-5.2,6.7-7.7c1-2.2,1-4.9,1-7.2c0-2,0-4,0-5.7v-7.7c0-6.2,0-7.2,0-8.4
	c0.2-1.5,0.5-2.2,1.5-2.5c0.5,0,0.7,0,1.2,0c0.5,0,0.7-0.2,0.7-0.5c0-0.2-0.2-0.2-0.7-0.2c-1.7,0-4.2,0-5.2,0c-1,0-3.7,0-5.7,0
	c-0.7,0-1,0-1,0.2c0,0.2,0.2,0.5,0.7,0.5c0.5,0,1.2,0,1.5,0c1.5,0.2,1.7,1,1.7,2.5c0.2,1.2,0.2,2.2,0.2,8.4V24L157.5,24z"/>
<path class="st0" d="M205.4,25.2c0,0.7,0,2,0,3.5c0,0.7-0.2,1.5-1,1.7c-0.2,0-0.7,0-1.2,0c-0.2,0-0.5,0.2-0.5,0.2
	c0,0.2,0.2,0.5,0.7,0.5c1.2,0,3.2-0.2,4.2-0.2c0.7,0,2.7,0.2,4.9,0.2c0.2,0,0.5-0.2,0.5-0.5c0,0,0-0.2-0.5-0.2c-0.5,0-1,0-1.5,0
	c-1-0.2-1.2-1-1.5-1.7c0-1.5,0-2.7,0-3.5v-2.5c0-1.2,0-2.2,0.5-3.2c0.5-1.5,5.2-9.1,6.2-10.4c0.7-1,1-1.2,1.7-1.7
	c0.5-0.2,1.2-0.2,1.5-0.2c0.2,0,0.5-0.2,0.5-0.5c0,0-0.2-0.2-0.5-0.2c-0.7,0-2.7,0.2-3.5,0.2c-1,0-2-0.2-3-0.2
	c-0.5,0-0.7,0.2-0.7,0.5c0,0,0.5,0.2,0.7,0.2c0.5,0,0.5,0.5,0.5,0.7c0,0.5,0,1-0.2,1.7c-0.5,1-4.7,8.1-4.9,8.9
	c-0.5-1-5.2-8.6-5.4-9.6c-0.2-0.5-0.5-1-0.5-1.2c0-0.2,0.2-0.5,0.5-0.5c0.5,0,0.7-0.2,0.7-0.2c0-0.2-0.2-0.5-0.5-0.5
	c-1.5,0-2.7,0.2-3.5,0.2c-1.2,0-3.5-0.2-4.2-0.2c-0.2,0-0.5,0.2-0.5,0.5c0,0.2,0.2,0.2,0.5,0.2c0.2,0,1,0.2,1.2,0.2
	c0.7,0.5,1.5,1.2,2.2,2.5c1.2,1.7,5.4,8.9,5.7,9.4c0.5,1,0.7,1.7,0.7,3.5V25.2L205.4,25.2z"/>
<path class="st0" d="M16.5,0.7v8.4H7.7c0,0-2.5,0-2.5,3.7h6.9v5.4H5.2v12.6H0V8.6c0,0-0.2-7.4,7.7-7.9H16.5L16.5,0.7z"/>
<path class="st0" d="M6.9,30.9v-8.4h8.6c0,0,2.5,0,2.5-3.7v-18h5.4V23c0,0,0.2,7.2-7.7,7.9H6.9L6.9,30.9z"/>
</svg>
