<?xml version="1.0" encoding="utf-8"?>
<!-- Generator: Adobe Illustrator 20.1.0, SVG Export Plug-In . SVG Version: 6.00 Build 0)  -->
<svg version="1.1" id="Слой_1" xmlns="http://www.w3.org/2000/svg" xmlns:xlink="http://www.w3.org/1999/xlink" x="0px" y="0px"
	 width="114.5px" height="114.5px" viewBox="0 0 114.5 114.5" enable-background="new 0 0 114.5 114.5" xml:space="preserve">
<g>
	<g>
		<path d="M21.8334961,58.4658203c-0.2763672,0-0.5-0.2236328-0.5-0.5c0-0.3388672,0.0043945-0.6777344,0.0141602-1.0146484
			c0.0083008-0.2763672,0.2822266-0.4804688,0.5146484-0.4853516c0.2758789,0.0087891,0.4931641,0.2382812,0.4853516,0.5146484
			c-0.0097656,0.3271484-0.0141602,0.65625-0.0141602,0.9853516C22.3334961,58.2421875,22.1098633,58.4658203,21.8334961,58.4658203
			z"/>
	</g>
	<g>
		<path d="M22.1845703,53.5078125c-0.0234375,0-0.046875-0.0019531-0.0708008-0.0048828
			c-0.2734375-0.0390625-0.4633789-0.2919922-0.4248047-0.5654297c0.0947266-0.6669922,0.2080078-1.3291016,0.3388672-1.9838867
			c0.0537109-0.2705078,0.3139648-0.449707,0.5883789-0.3920898c0.2705078,0.0541992,0.4462891,0.3173828,0.3920898,0.5878906
			c-0.1269531,0.6367188-0.2373047,1.2792969-0.3291016,1.9287109
			C22.6435547,53.3271484,22.4296875,53.5078125,22.1845703,53.5078125z M23.5107422,47.7060547
			c-0.0498047,0-0.1010742-0.0073242-0.1513672-0.0234375c-0.2631836-0.0834961-0.4086914-0.3647461-0.3251953-0.6279297
			c0.2041016-0.6420898,0.425293-1.2763672,0.6621094-1.902832c0.0981445-0.2587891,0.3881836-0.3876953,0.6445312-0.2910156
			c0.2583008,0.0976562,0.3886719,0.3862305,0.2910156,0.6445312c-0.230957,0.6098633-0.4462891,1.2275391-0.6445312,1.8520508
			C23.9194336,47.5703125,23.7226562,47.7060547,23.5107422,47.7060547z M25.7695312,42.1967773
			c-0.0761719,0-0.1533203-0.0175781-0.2260742-0.0541992c-0.2460938-0.125-0.3442383-0.4257812-0.2192383-0.6723633
			c0.3046875-0.5996094,0.6245117-1.1904297,0.9580078-1.7705078c0.1367188-0.2397461,0.4418945-0.3227539,0.6826172-0.1845703
			c0.2397461,0.1376953,0.3222656,0.4433594,0.1845703,0.6826172c-0.324707,0.5654297-0.6367188,1.140625-0.9335938,1.7255859
			C26.1274414,42.0966797,25.9521484,42.1967773,25.7695312,42.1967773z M28.8764648,37.1171875
			c-0.1015625,0-0.2045898-0.0307617-0.2929688-0.0952148c-0.2236328-0.1621094-0.2734375-0.4750977-0.1113281-0.6982422
			c0.3955078-0.5449219,0.8037109-1.0776367,1.2246094-1.5986328c0.1738281-0.215332,0.4887695-0.2480469,0.703125-0.0751953
			c0.2148438,0.1738281,0.2485352,0.4882812,0.0751953,0.703125c-0.4101562,0.5083008-0.8085938,1.0273438-1.1933594,1.5576172
			C29.1835938,37.0454102,29.03125,37.1171875,28.8764648,37.1171875z M32.7426758,32.5854492
			c-0.1279297,0-0.2558594-0.0488281-0.3535156-0.1464844c-0.1953125-0.1948242-0.1953125-0.5117188,0-0.7070312
			c0.4755859-0.4765625,0.9633789-0.9389648,1.4609375-1.3867188c0.2050781-0.1845703,0.5209961-0.1694336,0.7060547,0.0371094
			c0.1850586,0.2055664,0.1679688,0.5214844-0.0371094,0.7060547c-0.4848633,0.4360352-0.9589844,0.8867188-1.4228516,1.3505859
			C32.9985352,32.5366211,32.8706055,32.5854492,32.7426758,32.5854492z M37.2749023,28.7260742
			c-0.1552734,0-0.3085938-0.0722656-0.40625-0.2080078c-0.1611328-0.2241211-0.1103516-0.5361328,0.1137695-0.6977539
			c0.5463867-0.3935547,1.1020508-0.7705078,1.6665039-1.1298828c0.2319336-0.1494141,0.5410156-0.0805664,0.6904297,0.152832
			c0.1479492,0.2324219,0.0795898,0.5419922-0.1533203,0.6899414c-0.5478516,0.3496094-1.0878906,0.7158203-1.6196289,1.0986328
			C37.4780273,28.6953125,37.3759766,28.7260742,37.2749023,28.7260742z M42.3833008,25.6767578
			c-0.1860352,0-0.3642578-0.1040039-0.4506836-0.2822266c-0.1201172-0.2490234-0.0161133-0.5478516,0.2324219-0.6679688
			c0.6074219-0.293457,1.2216797-0.5673828,1.8413086-0.8212891c0.2543945-0.1040039,0.546875,0.0180664,0.6523438,0.2734375
			c0.1044922,0.2553711-0.0180664,0.5473633-0.2734375,0.6523438c-0.6010742,0.2460938-1.1958008,0.5112305-1.784668,0.7958984
			C42.5302734,25.6606445,42.4560547,25.6767578,42.3833008,25.6767578z M47.9599609,23.6074219
			c-0.2216797,0-0.4238281-0.1484375-0.4829102-0.3730469c-0.0703125-0.2670898,0.0893555-0.5405273,0.3564453-0.6103516
			c0.6513672-0.1713867,1.3144531-0.3212891,1.9716797-0.4453125c0.2705078-0.050293,0.5327148,0.1269531,0.5839844,0.3984375
			s-0.1269531,0.5327148-0.3984375,0.5839844c-0.6337891,0.1201172-1.2744141,0.2646484-1.9033203,0.4296875
			C48.0449219,23.6020508,48.0019531,23.6074219,47.9599609,23.6074219z"/>
	</g>
	<g>
		<path d="M53.8334961,22.7192383c-0.2670898,0-0.4887695-0.2114258-0.4990234-0.480957
			c-0.0107422-0.2758789,0.2045898-0.5083008,0.4804688-0.5185547c0.3393555-0.0131836,0.6787109-0.0200195,1.0185547-0.0200195
			c0.2763672,0,0.5,0.2236328,0.5,0.5s-0.2236328,0.5-0.5,0.5c-0.3271484,0-0.6538086,0.0068359-0.9804688,0.019043
			C53.8466797,22.7192383,53.8398438,22.7192383,53.8334961,22.7192383z"/>
	</g>
</g>
<path fill-rule="evenodd" clip-rule="evenodd" d="M109.5,0h-40c-2.7614136,0-5,2.2385864-5,5v90c0,2.7614136,2.2385864,5,5,5h40
	c2.7614136,0,5-2.2385864,5-5V5C114.5,2.2385864,112.2614136,0,109.5,0z M89.5,93.5c-2.2091675,0-4-1.7908936-4-4
	c0-2.2091675,1.7908325-4,4-4c2.2091064,0,4,1.7908325,4,4C93.5,91.7091064,91.7091064,93.5,89.5,93.5z M95.5,5h-12V4h12V5z"/>
<g>
	<path d="M95.5,114.5h-90c-3.0327148,0-5.5-2.4677734-5.5-5.5V69c0-3.0322266,2.4672852-5.5,5.5-5.5h90
		c3.0322266,0,5.5,2.4677734,5.5,5.5v40C101,112.0322266,98.5322266,114.5,95.5,114.5z M5.5,64.5C3.0185547,64.5,1,66.5185547,1,69
		v40c0,2.4814453,2.0185547,4.5,4.5,4.5h90c2.4814453,0,4.5-2.0185547,4.5-4.5V69c0-2.4814453-2.0185547-4.5-4.5-4.5H5.5z"/>
</g>
<g>
	<rect x="4.4999862" y="83" width="1" height="12"/>
</g>
<g>
	<polygon fill-rule="evenodd" clip-rule="evenodd" points="55.0663261,25.7329941 61.4708519,22.2993202 54.8333321,18.666666 
		57.2083321,22.333334 	"/>
</g>
</svg>
