<?xml version="1.0" encoding="utf-8"?>
<!-- Generator: Adobe Illustrator 20.1.0, SVG Export Plug-In . SVG Version: 6.00 Build 0)  -->
<svg version="1.1" id="Слой_1" xmlns="http://www.w3.org/2000/svg" xmlns:xlink="http://www.w3.org/1999/xlink" x="0px" y="0px"
	 width="189px" height="63.3px" viewBox="0 0 189 63.3" style="enable-background:new 0 0 189 63.3;" xml:space="preserve">
<style type="text/css">
	.st0{fill:#191919;}
	.st1{fill:#F0BC44;}
</style>
<path class="st0" d="M65,42.5v-9c1.5,2.1,3.2,3.1,4.9,3.1c0.7,0,1.2-0.2,1.6-0.5c0.4-0.4,0.6-0.8,0.6-1.3c0-0.8-0.5-1.5-1.4-2.2
	l-1.3-1c-0.8-0.6-1.6-1.3-2.2-1.9s-1.1-1.3-1.4-1.9c-0.4-0.7-0.6-1.3-0.8-2c-0.2-0.7-0.3-1.4-0.3-2.2c0-1.3,0.3-2.7,0.9-4.2
	c0.3-0.7,0.7-1.3,1.1-1.9s0.9-1.1,1.4-1.5c1.5-1.2,3.2-1.9,5.3-1.9c1.8,0,3.7,0.5,5.6,1.5v8.7c-0.6-1-1.3-1.7-2.2-2.3
	c-0.8-0.6-1.6-0.8-2.4-0.8c-0.6,0-1.1,0.2-1.5,0.5s-0.6,0.7-0.6,1.2c0,0.8,0.5,1.5,1.6,2.3l1.2,0.9c1.6,1.2,2.8,2.4,3.5,3.6
	s1.1,2.7,1.1,4.3c0,2.8-0.9,5.1-2.6,7c-1.7,1.8-3.9,2.7-6.5,2.7C69.1,43.8,67.1,43.4,65,42.5"/>
<path class="st0" d="M89.6,43.3h-7.7V14.6h7.5c3.7,0,6.5,0.8,8.3,2.3c2.1,1.8,3.2,4.3,3.2,7.5c0,3.5-1.1,6.1-3.4,7.8
	c-1.5,1.1-3.8,1.7-6.7,1.7h-1.2C89.6,33.9,89.6,43.3,89.6,43.3z M89.6,27.4H90c0.9,0,1.7-0.3,2.2-0.9c0.6-0.6,0.8-1.4,0.8-2.4
	s-0.3-1.8-0.8-2.4s-1.2-0.9-2.1-0.9h-0.5V27.4z"/>
<path class="st0" d="M121.5,43.3h-8l-0.6-3.6h-5.2l-0.6,3.6h-8l6.9-28.6h9.5L121.5,43.3z M112,33.5l-0.5-3.3c0,0,0-0.2-0.1-0.5
	c0-0.3-0.2-1.3-0.4-3.2c0-0.2-0.1-0.5-0.1-0.9s-0.1-0.8-0.1-1.4l-0.2-2.7c0,0.3-0.1,0.5-0.1,0.9c0,0.3-0.1,0.7-0.1,1.1
	c-0.1,0.8-0.1,1.3-0.2,1.6c0,0.3-0.1,0.5-0.1,0.5l-0.5,3.5l-0.8,4.5L112,33.5L112,33.5z"/>
<path class="st0" d="M144.1,43.3h-8.4l-3.8-10.2c0-0.2-0.1-0.4-0.2-0.7c-0.1-0.3-0.2-0.6-0.3-1l0.1,1.9v10h-7.7V14.6h7.9
	c3.5,0,6.1,0.7,7.8,2.1c2.2,1.8,3.3,4.3,3.3,7.5c0,3.5-1.5,5.9-4.4,7.2L144.1,43.3z M131.5,27.9h0.5c0.9,0,1.6-0.3,2.2-1
	c0.6-0.7,0.9-1.5,0.9-2.6c0-2.1-1.1-3.2-3.4-3.2h-0.3v6.8H131.5z"/>
<polygon class="st0" points="167.3,43.3 159,43.3 153.8,30.1 154,43.3 146.3,43.3 146.3,14.6 154,14.6 153.8,26.9 158.4,14.6 
	166.5,14.6 160.4,28.4 "/>
<path class="st0" d="M182.3,43.3h-7.7V31.1l-7.1-16.5h8.1l1.4,4.2c0.3,0.8,0.5,1.6,0.7,2.4s0.4,1.5,0.6,2.2c0.3-1.1,0.5-2,0.7-2.7
	c0.2-0.8,0.4-1.4,0.6-1.8l1.4-4.3h8l-6.7,16.5V43.3z"/>
<path class="st1" d="M25.2,3.8C11.3,3.8,0,15.1,0,29c0,14,11.3,25.3,25.2,25.3c14,0,25.3-11.3,25.3-25.3
	C50.5,15.1,39.2,3.8,25.2,3.8"/>
<path class="st0" d="M46.3,20.6c0.1,0,0.1,0,0.1,0.1s0,0.1,0,0.2c-0.1,0.2-0.2,0.3-0.2,0.5l-0.1,0.1c-0.2,0.1-0.2,0.2-0.3,0.3
	c-0.1,0.2-0.2,0.4-0.3,0.5c-0.2,0.2-0.3,0.4-0.4,0.6c-0.1,0.2-0.3,0.3-0.4,0.5c-0.2,0.2-0.4,0.5-0.6,0.8c-0.1,0.2-0.2,0.3-0.3,0.4
	s-0.1,0.1-0.2,0.2c-0.1,0.2-0.2,0.3-0.4,0.5c-0.5,0.3-1,0.7-1.3,1.1c-0.1,0.1-0.2,0.2-0.2,0.3c-0.1,0.2-0.2,0.3-0.4,0.5
	c-0.1,0.1-0.1,0.1-0.2,0.2c-0.1,0.2-0.2,0.4-0.4,0.4c-0.2,0-0.3,0.2-0.4,0.2c-0.3,0.2-0.7,0.5-1,0.8c-0.1,0.1-0.3,0.3-0.4,0.5
	c-0.1,0.2-0.2,0.3-0.3,0.4s-0.1,0.1-0.2,0.2c-0.1,0.2-0.2,0.4-0.4,0.5c-0.1,0.1-0.2,0.2-0.3,0.3c-0.3,0.2-0.7,0.5-1,0.7
	c-0.1,0.1-0.3,0.3-0.4,0.5c-0.1,0.2-0.2,0.3-0.3,0.4s-0.1,0.1-0.2,0.2c-0.1,0.2-0.2,0.4-0.4,0.5c-0.1,0.1-0.2,0.2-0.3,0.3
	c-0.3,0.3-0.7,0.4-1,0.7c-0.2,0.2-0.3,0.3-0.4,0.5c-0.1,0.1-0.2,0.2-0.3,0.3s-0.2,0.2-0.2,0.3c-0.1,0.2-0.2,0.3-0.4,0.4
	c-0.1,0.1-0.2,0.2-0.3,0.3c-0.2,0.2-0.3,0.3-0.5,0.4c-0.2,0.2-0.5,0.4-0.7,0.5l-0.1,0.1c-0.1,0.2-0.2,0.3-0.3,0.4
	c-0.1,0.1-0.1,0.2-0.2,0.3c-0.1,0.2-0.2,0.4-0.4,0.5c-0.1,0.1-0.2,0.2-0.3,0.3c-0.1,0.2-0.3,0.2-0.5,0.4c-0.1,0.1-0.2,0.2-0.3,0.3
	c-0.2,0.1-0.4,0.3-0.6,0.5c-0.1,0.1-0.2,0.2-0.3,0.3c-0.1,0.1-0.1,0.1-0.1,0.2c-0.1,0.2-0.2,0.4-0.4,0.6c-0.1,0.1-0.1,0.2-0.2,0.3
	c-0.2,0.2-0.4,0.4-0.7,0.6c-0.2,0.2-0.4,0.3-0.6,0.5c0,0-0.1,0-0.1,0.1c-0.1,0.1-0.2,0.2-0.3,0.3c-0.2,0.1-0.3,0.4-0.4,0.6
	c-0.1,0.1-0.1,0.2-0.2,0.3s-0.2,0.3-0.3,0.4c-0.2,0.2-0.3,0.3-0.5,0.4c-0.2,0.2-0.5,0.3-0.7,0.5s-0.4,0.4-0.6,0.6c0,0,0,0.1-0.1,0.1
	c-0.1,0.2-0.2,0.4-0.4,0.5c-0.1,0.1-0.1,0.2-0.2,0.3c-0.2,0.2-0.4,0.4-0.6,0.5c-0.2,0.2-0.4,0.4-0.7,0.5l-0.1,0.1
	c-0.1,0.2-0.3,0.3-0.4,0.4c-0.1,0.1-0.1,0.1-0.2,0.2c-0.1,0.2-0.2,0.4-0.4,0.6c-0.1,0.1-0.2,0.3-0.3,0.4c0,0.1-0.1,0.1-0.2,0.2
	c-0.1,0-0.2,0-0.3,0c-0.1-0.1,0-0.1,0-0.2c0-0.1,0.1-0.2,0.1-0.3c0-0.2,0.1-0.3,0.1-0.4c0.1-0.2,0.2-0.4,0.2-0.6
	c0-0.2,0.1-0.3,0.2-0.4c0.1-0.2,0.2-0.3,0.2-0.5s0.1-0.3,0.2-0.5c0.1-0.1,0.2-0.3,0.1-0.4c0-0.3,0.1-0.5,0.3-0.7
	c0.1-0.1,0.3-0.2,0.4-0.3s0.2-0.2,0.3-0.3c0.3-0.3,0.6-0.6,0.8-1c0.1-0.1,0.1-0.2,0.2-0.3s0.2-0.3,0.3-0.4c0.1-0.1,0.2-0.2,0.3-0.3
	c0.2-0.1,0.3-0.2,0.4-0.3s0.3-0.2,0.4-0.3c0.2-0.2,0.3-0.3,0.5-0.5s0.3-0.4,0.5-0.7c0.2-0.2,0.3-0.4,0.4-0.6
	c0.1-0.1,0.1-0.1,0.2-0.2c0.2-0.1,0.4-0.2,0.5-0.4c0.1-0.1,0.2-0.2,0.4-0.2c0.2-0.1,0.3-0.3,0.5-0.4c0.2-0.2,0.4-0.4,0.6-0.7
	c0.2-0.2,0.3-0.4,0.4-0.6c0.1-0.1,0.1-0.2,0.3-0.3c0.2-0.1,0.3-0.2,0.4-0.3s0.2-0.1,0.3-0.2c0.2-0.1,0.4-0.3,0.6-0.5
	s0.4-0.3,0.5-0.5c0.1-0.1,0.2-0.2,0.3-0.3c0.1-0.1,0.1-0.1,0.1-0.2c0.1-0.2,0.2-0.4,0.4-0.5c0.1-0.1,0.3-0.2,0.3-0.3
	c0.1-0.1,0.3-0.2,0.4-0.3c0.2-0.1,0.3-0.3,0.5-0.4c0.2-0.2,0.4-0.4,0.5-0.6c0.1-0.1,0.1-0.2,0.2-0.3c0.1-0.1,0.1-0.2,0.2-0.3
	c0.1-0.2,0.2-0.4,0.4-0.5c0.1-0.1,0.2-0.1,0.2-0.2c0.1-0.2,0.3-0.3,0.5-0.4c0.4-0.3,0.8-0.6,1.1-1c0-0.1,0.1-0.1,0.1-0.1
	c0.1-0.1,0.2-0.2,0.2-0.3c0.1-0.2,0.2-0.4,0.4-0.6c0.1,0,0.1-0.1,0.2-0.2c0.1-0.2,0.3-0.3,0.5-0.5c0.4-0.3,0.8-0.6,1.1-1l0.1-0.1
	c0.1-0.1,0.2-0.2,0.2-0.3c0.1-0.2,0.2-0.4,0.4-0.5l0.1-0.1c0.2-0.4,0.5-0.6,0.9-0.8c0.3-0.2,0.5-0.4,0.8-0.7
	c0.1-0.1,0.1-0.2,0.2-0.2c0.1-0.1,0.1-0.1,0.2-0.2c0.1-0.2,0.2-0.4,0.4-0.5c0.1,0,0.1-0.1,0.2-0.2c0.1-0.3,0.4-0.5,0.7-0.6
	c0.3-0.2,0.6-0.4,0.9-0.7c0.1-0.1,0.2-0.2,0.3-0.3c0.1,0,0.1-0.1,0.1-0.2c0.1-0.2,0.2-0.4,0.4-0.6c0.1-0.1,0.2-0.2,0.2-0.3
	c0.1-0.1,0.1-0.1,0.3-0.2c0.3,0,0.6-0.2,1-0.2c0.1,0,0.3-0.1,0.4-0.1C45.8,20.8,46,20.7,46.3,20.6C46.3,20.7,46.3,20.6,46.3,20.6"/>
<path class="st0" d="M30.9,10.9c-0.1,0.2-0.1,0.5-0.2,0.7c-0.1,0.1-0.1,0.2-0.2,0.4c0,0.2-0.1,0.5-0.2,0.7c0,0.1-0.1,0.2-0.1,0.3
	c0,0.2-0.1,0.4-0.2,0.5c-0.1,0.2-0.2,0.3-0.2,0.5c-0.1,0.4-0.2,0.7-0.4,1c-0.2,0.3-0.4,0.5-0.7,0.7c-0.3,0.1-0.5,0.3-0.7,0.6
	c0,0.1-0.1,0.1-0.2,0.1c-0.1,0.1-0.2,0.2-0.3,0.3c-0.1,0.2-0.2,0.4-0.4,0.5c-0.2,0.1-0.3,0.3-0.4,0.5c-0.1,0.1-0.2,0.2-0.3,0.3
	c-0.2,0.2-0.4,0.3-0.6,0.4s-0.3,0.2-0.4,0.3c-0.1,0.1-0.1,0.2-0.2,0.2c-0.1,0.1-0.2,0.2-0.3,0.3c-0.1,0.2-0.2,0.4-0.3,0.5
	c-0.2,0.2-0.3,0.4-0.4,0.5s-0.1,0.2-0.2,0.2c-0.2,0.2-0.4,0.4-0.7,0.5L23.2,21c-0.2,0.2-0.3,0.4-0.6,0.5c-0.1,0-0.2,0.1-0.2,0.2
	c-0.1,0.3-0.3,0.4-0.5,0.6c-0.1,0.1-0.2,0.3-0.3,0.4c-0.1,0.1-0.3,0.3-0.4,0.4s-0.2,0.2-0.4,0.3c-0.2,0.1-0.4,0.3-0.5,0.4
	s-0.1,0.1-0.2,0.1s-0.3,0.2-0.3,0.3c-0.1,0.3-0.3,0.4-0.5,0.6c-0.1,0.1-0.1,0.2-0.2,0.4c-0.1,0.2-0.3,0.3-0.4,0.4s-0.2,0.2-0.4,0.3
	c-0.2,0.1-0.4,0.3-0.6,0.5l-0.1,0.1c-0.2,0.1-0.4,0.2-0.4,0.4C17.1,27,17,27.1,17,27.2c-0.2,0.2-0.3,0.5-0.5,0.7
	c-0.1,0.2-0.3,0.3-0.4,0.5c-0.2,0.2-0.5,0.4-0.8,0.7l-0.1,0.1c-0.2,0.1-0.4,0.2-0.5,0.4c0,0.1-0.1,0.1-0.1,0.2
	c-0.1,0.1-0.3,0.3-0.4,0.5c-0.1,0.3-0.3,0.5-0.6,0.7c-0.2,0.2-0.4,0.3-0.6,0.5c-0.1,0.1-0.3,0.3-0.5,0.3c-0.1,0-0.2,0.1-0.3,0.2
	c-0.1,0.2-0.2,0.3-0.4,0.4c-0.2,0.2-0.3,0.4-0.4,0.6c-0.2,0.3-0.4,0.5-0.7,0.8c-0.2,0.1-0.3,0.3-0.4,0.4c-0.1,0.1-0.1,0.1-0.2,0.2
	c-0.2,0.1-0.4,0.2-0.5,0.4c0,0.1,0,0.1-0.1,0.1c-0.3,0.2-0.5,0.4-0.6,0.7c-0.2,0.3-0.4,0.5-0.6,0.8c-0.1,0.1-0.3,0.3-0.4,0.4
	c0,0.1-0.1,0.2-0.2,0.2c-0.2,0.1-0.4,0.2-0.5,0.4c0,0.1-0.1,0.1-0.1,0.1c-0.2,0.1-0.3,0.2-0.4,0.4L6.6,38c-0.4,0.1-0.8,0.2-1.2,0.3
	c-0.2,0-0.3,0.1-0.5,0.1c-0.1,0-0.2,0-0.2,0c0-0.1,0-0.2,0-0.2C4.8,38.1,4.8,38,4.9,38c0.1-0.1,0.2-0.2,0.3-0.3
	c0.1-0.2,0.1-0.3,0.3-0.4c0.1-0.1,0.2-0.1,0.2-0.2c0.2-0.3,0.4-0.6,0.6-0.9c0.1-0.2,0.3-0.3,0.4-0.5c0.2-0.4,0.6-0.6,0.8-1
	c0.1-0.1,0.2-0.2,0.3-0.2c0.2-0.1,0.3-0.2,0.3-0.3c0.1-0.2,0.3-0.3,0.4-0.5c0.2-0.3,0.4-0.5,0.6-0.8c0.1-0.2,0.3-0.3,0.5-0.4
	c0.1-0.1,0.2-0.1,0.3-0.2c0.1-0.1,0.3-0.3,0.4-0.3c0.1,0,0.1-0.1,0.2-0.1c0.2-0.2,0.4-0.5,0.6-0.7c0.2-0.2,0.4-0.5,0.6-0.8
	c0.1-0.2,0.3-0.4,0.6-0.5c0.1,0,0.2-0.1,0.2-0.2c0.1-0.1,0.3-0.2,0.4-0.3c0.1,0,0.1,0,0.2-0.1c0.2-0.2,0.3-0.4,0.5-0.6
	s0.4-0.5,0.5-0.7c0.1-0.3,0.4-0.5,0.6-0.6c0.1,0,0.1-0.1,0.2-0.2c0.1-0.2,0.3-0.3,0.5-0.3c0.1,0,0.1,0,0.2-0.1
	c0.2-0.3,0.4-0.5,0.6-0.7s0.4-0.5,0.5-0.7s0.2-0.3,0.4-0.5c0.1-0.1,0.3-0.2,0.4-0.3c0.1-0.1,0.3-0.2,0.4-0.3c0.1,0,0.1,0,0.2-0.1
	c0.2-0.2,0.4-0.4,0.6-0.6s0.4-0.4,0.5-0.7c0.1-0.2,0.3-0.4,0.5-0.6c0.1-0.1,0.2-0.2,0.3-0.3c0.1-0.1,0.2-0.2,0.3-0.3
	c0.2,0,0.3-0.2,0.4-0.3c0.1-0.2,0.3-0.3,0.5-0.5s0.4-0.4,0.5-0.7c0.1-0.2,0.3-0.4,0.5-0.6c0.1-0.1,0.2-0.2,0.2-0.2
	c0.1-0.1,0.2-0.2,0.4-0.3c0.2-0.1,0.3-0.1,0.4-0.3c0.1-0.2,0.3-0.3,0.5-0.5s0.4-0.4,0.5-0.7c0.1-0.2,0.3-0.4,0.5-0.6
	c0.1-0.1,0.2-0.2,0.2-0.3c0.1-0.1,0.2-0.2,0.4-0.3c0.2-0.1,0.3-0.2,0.4-0.3c0.1-0.2,0.3-0.3,0.5-0.4c0.3-0.2,0.5-0.5,0.6-0.7
	s0.3-0.3,0.4-0.5c0.2-0.3,0.5-0.6,0.9-0.8c0.2-0.3,0.5-0.5,0.8-0.7c0.1-0.1,0.3-0.3,0.4-0.5s0.3-0.4,0.5-0.6
	c0.2-0.3,0.5-0.7,0.9-0.8c0.1,0,0.1-0.1,0.1-0.1C30.9,10.9,30.9,10.9,30.9,10.9C30.9,10.7,30.9,10.8,30.9,10.9"/>
<path class="st0" d="M17.5,53.9c0-0.2,0.1-0.3,0.2-0.4c0.1-0.2,0.2-0.4,0.2-0.6c0-0.1,0-0.2,0.1-0.2c0.1-0.2,0.2-0.4,0.2-0.6
	c0.1-0.3,0.2-0.6,0.3-0.8c0.1-0.3,0.2-0.6,0.3-0.9c0.1-0.2,0.2-0.5,0.5-0.5c0.2,0,0.3-0.2,0.4-0.3s0.1-0.2,0.3-0.2
	c0.1-0.1,0.2-0.2,0.3-0.3c0.3-0.4,0.5-0.7,0.8-1.1c0.2-0.2,0.4-0.4,0.6-0.5l0.1-0.1c0.2,0,0.3-0.1,0.4-0.2c0.1-0.1,0.3-0.3,0.4-0.4
	c0.1,0,0.1-0.1,0.2-0.2c0.2-0.3,0.5-0.6,0.7-1c0.2-0.3,0.4-0.5,0.7-0.7l0.1-0.1c0.2-0.1,0.4-0.2,0.5-0.4c0.1-0.1,0.1-0.1,0.2-0.1
	c0.2-0.1,0.3-0.2,0.4-0.3c0.1-0.2,0.3-0.3,0.4-0.5c0.1-0.1,0.1-0.2,0.2-0.2c0.2-0.3,0.5-0.6,0.7-0.9l0.1-0.1
	c0.2-0.1,0.4-0.3,0.6-0.4l0,0c0.4-0.2,0.6-0.6,0.9-0.9c0.1-0.1,0.1-0.2,0.2-0.2c0.2-0.3,0.4-0.6,0.7-0.8c0-0.1,0.1-0.1,0.2-0.1
	c0.2-0.1,0.4-0.3,0.5-0.4c0,0,0.1-0.1,0.2-0.1c0.2-0.1,0.3-0.2,0.5-0.4v-0.1c0.4-0.4,0.7-0.9,1-1.3c0.2-0.2,0.4-0.4,0.7-0.6
	c0.1-0.1,0.3-0.2,0.5-0.3s0.4-0.4,0.6-0.5c0.3-0.3,0.5-0.6,0.8-1c0.1-0.2,0.3-0.4,0.5-0.5l0,0c0.2-0.2,0.4-0.4,0.7-0.5
	c0.2-0.1,0.4-0.4,0.5-0.5c0.3-0.3,0.6-0.7,0.8-1c0.1-0.2,0.2-0.3,0.4-0.4c0.1,0,0.1-0.1,0.1-0.1c0.2-0.2,0.4-0.4,0.6-0.5
	c0.2-0.1,0.4-0.3,0.6-0.5c0.4-0.3,0.6-0.7,0.9-1.1c0.3-0.4,0.6-0.8,1.1-1c0.1-0.1,0.3-0.1,0.4-0.3l0.1-0.1c0.1,0,0.1,0,0.2,0v0.1
	c-0.1,0.3-0.2,0.6-0.4,0.8c-0.1,0.1-0.2,0.2-0.2,0.3c-0.1,0.2-0.2,0.3-0.3,0.4c-0.2,0.2-0.3,0.4-0.4,0.6c-0.1,0.2-0.3,0.4-0.4,0.6
	c-0.2,0.2-0.4,0.5-0.5,0.7c0,0.1-0.1,0.1-0.2,0.2C38.1,32,38,32.1,38,32.3c-0.1,0.2-0.2,0.3-0.3,0.5c-0.1,0-0.1,0.1-0.1,0.2
	c-0.2,0.3-0.4,0.6-0.6,0.8c-0.1,0.1-0.2,0.3-0.3,0.4c-0.2,0.3-0.3,0.6-0.6,0.8C36,35,36,35.1,36,35.2c-0.1,0.2-0.2,0.3-0.3,0.4
	c-0.1,0.1-0.2,0.2-0.2,0.3c-0.1,0.2-0.2,0.4-0.4,0.5c-0.1,0.1-0.2,0.2-0.2,0.3c-0.2,0.2-0.4,0.4-0.5,0.7c-0.2,0.3-0.5,0.5-0.7,0.8
	c-0.1,0.1-0.2,0.1-0.3,0.2c-0.2,0.2-0.5,0.5-0.8,0.6c-0.1,0.1-0.2,0.2-0.3,0.3c-0.2,0.2-0.4,0.4-0.5,0.6c-0.2,0.3-0.4,0.6-0.6,0.8
	c-0.1,0.1-0.3,0.2-0.4,0.3c0,0-0.1,0-0.1,0.1c-0.1,0.2-0.4,0.3-0.6,0.4c-0.2,0.1-0.3,0.3-0.4,0.4L29.6,42c-0.2,0.1-0.3,0.3-0.4,0.5
	s-0.2,0.3-0.3,0.4c-0.2,0.2-0.4,0.4-0.6,0.6c0,0-0.1,0-0.1,0.1c-0.1,0.2-0.3,0.3-0.6,0.4c-0.2,0.1-0.3,0.3-0.4,0.4l-0.1,0.1
	c-0.2,0.1-0.3,0.3-0.4,0.4c-0.1,0.1-0.1,0.2-0.2,0.3c-0.2,0.3-0.5,0.6-0.8,0.8c0,0-0.1,0-0.1,0.1c-0.1,0.2-0.3,0.3-0.5,0.4
	c-0.2,0.1-0.4,0.3-0.5,0.4L24.5,47c-0.2,0.1-0.3,0.2-0.4,0.4c-0.2,0.2-0.3,0.5-0.5,0.7c-0.1,0.1-0.1,0.2-0.2,0.2
	c-0.1,0.1-0.3,0.2-0.4,0.4c-0.1,0.1-0.2,0.2-0.4,0.3c-0.2,0.1-0.4,0.3-0.6,0.4l-0.1,0.1c-0.2,0.1-0.3,0.2-0.4,0.4
	c-0.3,0.4-0.5,0.8-0.9,1.2l0,0c-0.1,0.3-0.4,0.4-0.6,0.6c-0.1,0.1-0.2,0.2-0.4,0.3l-0.1,0.1c-0.2,0.1-0.3,0.3-0.5,0.5
	c-0.2,0.3-0.4,0.7-0.7,0.9c-0.1,0.1-0.2,0.2-0.2,0.2c-0.1,0.1-0.1,0.1-0.2,0.1C17.5,54.1,17.5,54,17.5,53.9"/>
<path class="st0" d="M42.7,21.7c0,0.2-0.1,0.3-0.2,0.4c-0.2,0.2-0.4,0.4-0.6,0.6c-0.2,0.2-0.3,0.3-0.5,0.4c-0.3,0.2-0.6,0.4-0.7,0.7
	c0,0.1-0.1,0.2-0.2,0.2c-0.1,0.1-0.2,0.2-0.3,0.3c-0.1,0.2-0.2,0.4-0.4,0.5s-0.3,0.3-0.5,0.5c-0.1,0.1-0.3,0.3-0.5,0.4
	c-0.3,0.2-0.6,0.4-0.8,0.7c0,0.1-0.1,0.1-0.2,0.2c-0.1,0.1-0.2,0.2-0.2,0.3c-0.1,0.2-0.2,0.4-0.4,0.5s-0.3,0.4-0.5,0.5
	c-0.1,0.1-0.3,0.3-0.4,0.4c-0.3,0.2-0.6,0.4-0.8,0.7l-0.1,0.1c-0.2,0.1-0.3,0.2-0.3,0.4c-0.1,0.2-0.2,0.4-0.4,0.5
	c-0.2,0.2-0.3,0.4-0.5,0.5c-0.1,0.1-0.3,0.3-0.5,0.4c-0.3,0.2-0.6,0.3-0.8,0.6c0,0.1-0.1,0.1-0.2,0.2c-0.1,0.1-0.2,0.2-0.3,0.3
	c-0.1,0.2-0.2,0.4-0.4,0.5c-0.2,0.2-0.3,0.4-0.4,0.5c-0.2,0.2-0.3,0.3-0.5,0.4c-0.3,0.2-0.6,0.3-0.7,0.6c0,0.1-0.1,0.1-0.1,0.1
	c-0.2,0.1-0.3,0.2-0.3,0.3c-0.1,0.2-0.2,0.4-0.3,0.5c-0.2,0.1-0.3,0.3-0.4,0.5c-0.2,0.3-0.4,0.5-0.7,0.7c-0.2,0.1-0.5,0.3-0.6,0.5
	l-0.1,0.1c-0.2,0-0.3,0.2-0.3,0.3c-0.1,0.2-0.2,0.4-0.4,0.5c-0.2,0.2-0.3,0.4-0.4,0.6c-0.1,0.2-0.3,0.3-0.5,0.5
	c-0.3,0.2-0.6,0.4-0.8,0.6l-0.1,0.1c-0.2,0-0.3,0.2-0.3,0.3c-0.1,0.2-0.2,0.3-0.3,0.5c-0.2,0.2-0.3,0.4-0.4,0.6
	c-0.2,0.3-0.4,0.5-0.7,0.7c-0.2,0.2-0.4,0.3-0.6,0.5c0,0-0.1,0-0.1,0.1c-0.2,0.1-0.4,0.2-0.4,0.4c0,0.1-0.2,0.2-0.3,0.3
	c-0.2,0.2-0.3,0.4-0.4,0.6c-0.1,0.1-0.2,0.2-0.3,0.3c0,0.1-0.1,0.1-0.2,0.1s-0.1,0-0.1-0.1s0-0.1,0-0.2c0.1-0.2,0.1-0.4,0.2-0.6
	c0-0.2,0.1-0.3,0.2-0.5s0.1-0.4,0.2-0.6c0-0.1,0.1-0.3,0.1-0.4c0.1-0.2,0.2-0.5,0.2-0.7c0-0.1,0.1-0.2,0.1-0.3
	c0.1-0.1,0.1-0.3,0.2-0.5c0-0.2,0.2-0.4,0.4-0.4c0.1,0,0.2-0.1,0.3-0.2c0.1-0.2,0.4-0.4,0.5-0.6c0.2-0.2,0.4-0.4,0.5-0.7
	c0.1-0.2,0.3-0.4,0.5-0.6c0.1-0.1,0.1-0.1,0.2-0.2c0.1-0.2,0.3-0.3,0.5-0.4c0.1,0,0.1,0,0.2-0.1c0.2-0.3,0.4-0.4,0.6-0.7
	c0.2-0.2,0.4-0.4,0.5-0.7c0.1-0.2,0.2-0.4,0.4-0.5c0.1-0.1,0.2-0.2,0.3-0.3c0.1-0.1,0.2-0.2,0.3-0.3c0.2,0,0.3-0.1,0.4-0.3
	c0.2-0.2,0.4-0.3,0.5-0.5c0.2-0.2,0.4-0.4,0.5-0.7c0.1-0.2,0.3-0.4,0.5-0.6c0.1-0.1,0.2-0.2,0.2-0.3c0.1-0.1,0.2-0.3,0.3-0.3
	c0.2-0.1,0.3-0.2,0.4-0.3c0.2-0.2,0.4-0.3,0.6-0.5s0.4-0.4,0.5-0.6s0.2-0.4,0.4-0.5c0.1-0.1,0.2-0.2,0.2-0.3
	c0.1-0.2,0.3-0.3,0.5-0.4c0.1,0,0.2-0.1,0.2-0.1c0.2-0.2,0.5-0.4,0.7-0.6c0.2-0.1,0.3-0.3,0.5-0.5s0.3-0.5,0.5-0.7
	c0.1-0.1,0.2-0.3,0.3-0.4s0.1-0.2,0.2-0.2c0.2-0.1,0.4-0.2,0.5-0.4c0.1-0.1,0.2-0.2,0.3-0.2c0.3-0.2,0.5-0.4,0.7-0.7
	c0.2-0.2,0.3-0.4,0.5-0.6c0,0,0.1-0.1,0.1-0.2c0.1-0.3,0.4-0.5,0.6-0.7c0.3-0.2,0.6-0.5,0.9-0.7c0.2-0.2,0.4-0.4,0.5-0.6
	c0.1-0.1,0.2-0.2,0.4-0.2s0.5,0,0.7-0.2c0.1-0.1,0.3-0.1,0.5-0.1c0.1,0,0.3,0,0.5-0.1c0.1-0.1,0.3-0.1,0.4-0.1
	c0.2,0,0.5-0.1,0.7-0.1C42.7,21.5,42.8,21.5,42.7,21.7"/>
<path class="st0" d="M8.2,37.6H8.1C8,37.5,8,37.4,8,37.3c0.1-0.2,0.3-0.4,0.4-0.5C8.8,36.6,9,36.3,9.2,36c0.1-0.2,0.2-0.3,0.4-0.5
	c0.1-0.1,0.2-0.2,0.3-0.3s0.2-0.2,0.3-0.4c0.1-0.1,0.1-0.1,0.2-0.1c0.2,0,0.3-0.1,0.4-0.2c0.1-0.2,0.4-0.3,0.5-0.5
	c0.3-0.3,0.6-0.7,0.8-1c0.1-0.1,0.2-0.2,0.3-0.3s0.2-0.2,0.3-0.4c0.1-0.1,0.1-0.2,0.3-0.2c0.2-0.1,0.4-0.2,0.5-0.3
	c0.1-0.1,0.3-0.2,0.4-0.3c0.3-0.3,0.6-0.6,0.8-0.9c0.1-0.1,0.2-0.3,0.3-0.4s0.2-0.2,0.3-0.3c0.1-0.1,0.2-0.2,0.3-0.2
	c0.2-0.1,0.3-0.1,0.4-0.3c0.1-0.1,0.2-0.2,0.4-0.3c0.2-0.2,0.3-0.3,0.5-0.5s0.3-0.4,0.5-0.6c0-0.1,0.1-0.2,0.2-0.2
	c0.1-0.1,0.2-0.2,0.2-0.3c0.1-0.2,0.2-0.3,0.4-0.4c0.2-0.1,0.3-0.1,0.4-0.3c0.1-0.1,0.2-0.1,0.3-0.2c0.2-0.1,0.3-0.3,0.5-0.5
	s0.4-0.4,0.5-0.6c0.1-0.1,0.1-0.2,0.2-0.3c0.1-0.1,0.1-0.2,0.2-0.3c0.1-0.2,0.2-0.3,0.4-0.4c0.1-0.1,0.3-0.2,0.4-0.3
	c0.1-0.1,0.2-0.1,0.3-0.2c0.2-0.1,0.3-0.3,0.5-0.5s0.3-0.3,0.4-0.5c0.1-0.1,0.2-0.3,0.3-0.4c0.1-0.1,0.1-0.2,0.1-0.3
	c0.1-0.2,0.2-0.4,0.4-0.5c0.1,0,0.2-0.1,0.2-0.2c0.2-0.2,0.4-0.3,0.6-0.5c0.1-0.1,0.2-0.2,0.3-0.3c0.2-0.2,0.3-0.3,0.5-0.5
	c0.1-0.1,0.2-0.3,0.3-0.4c0.1-0.1,0.1-0.1,0.1-0.2c0.1-0.2,0.2-0.4,0.4-0.5c0.1,0,0.1-0.1,0.2-0.2c0.1-0.2,0.3-0.3,0.5-0.4
	c0.4-0.3,0.8-0.6,1.1-1l0.1-0.1c0.1-0.1,0.2-0.2,0.2-0.3c0.1-0.2,0.2-0.4,0.4-0.5c0.1-0.1,0.2-0.2,0.3-0.3c0.1-0.1,0.2-0.2,0.3-0.2
	c0.2-0.1,0.2,0,0.2,0.2c0,0.1,0,0.2-0.1,0.2c-0.2,0.5-0.3,0.9-0.5,1.4c-0.1,0.4-0.3,0.7-0.4,1.1c0,0.1,0,0.1-0.1,0.1
	c-0.2,0.1-0.2,0.3-0.2,0.5c-0.1,0.4-0.2,0.7-0.5,1c-0.2,0.2-0.4,0.3-0.6,0.5c-0.3,0.2-0.6,0.4-0.8,0.7c-0.1,0.1-0.2,0.2-0.3,0.3
	c-0.1,0.1-0.2,0.2-0.2,0.3c-0.1,0.2-0.2,0.4-0.4,0.5c-0.1,0.1-0.2,0.2-0.3,0.4c-0.1,0.2-0.3,0.3-0.5,0.4c-0.2,0.2-0.5,0.3-0.7,0.5
	l-0.1,0.1c-0.1,0.2-0.2,0.3-0.4,0.4c-0.1,0.1-0.1,0.1-0.2,0.2c-0.1,0.2-0.2,0.4-0.4,0.5c-0.1,0.1-0.2,0.2-0.3,0.4
	c-0.1,0.2-0.3,0.3-0.5,0.4c-0.2,0.2-0.5,0.3-0.7,0.5c0,0-0.1,0-0.1,0.1c-0.1,0.2-0.3,0.3-0.4,0.4S20,27.4,20,27.5
	c-0.1,0.2-0.2,0.4-0.4,0.6c-0.1,0.1-0.1,0.2-0.2,0.3c-0.2,0.3-0.5,0.5-0.8,0.7c-0.1,0.1-0.3,0.2-0.4,0.3l-0.1,0.1
	c-0.1,0.2-0.3,0.3-0.4,0.4s-0.1,0.1-0.2,0.2c-0.1,0.2-0.2,0.4-0.4,0.5c-0.1,0.1-0.2,0.2-0.3,0.4c-0.1,0.2-0.3,0.3-0.5,0.5
	s-0.4,0.4-0.7,0.5c0,0-0.1,0-0.1,0.1c-0.1,0.2-0.3,0.3-0.5,0.4c-0.1,0-0.1,0.1-0.1,0.2c-0.1,0.2-0.2,0.4-0.4,0.6
	c-0.1,0.1-0.1,0.2-0.2,0.3c-0.2,0.2-0.4,0.4-0.6,0.6c-0.2,0.2-0.4,0.4-0.7,0.5c-0.1,0.1-0.2,0.2-0.4,0.3c-0.1,0-0.1,0.1-0.2,0.1
	c-0.1,0-0.1,0.1-0.2,0.2c-0.1,0.2-0.2,0.4-0.4,0.6c-0.1,0.1-0.1,0.2-0.2,0.3c-0.2,0.2-0.4,0.4-0.6,0.6c-0.1,0.1-0.2,0.3-0.4,0.4
	l-0.1,0.1c-0.3,0-0.5,0.2-0.7,0.2s-0.4,0-0.6,0.1H9.1c-0.2,0.2-0.4,0.2-0.7,0.2c-0.2,0-0.4,0-0.5,0.2C8.4,37.6,8.4,37.6,8.2,37.6"/>
<path class="st0" d="M11.5,29.5c-0.2,0-0.3-0.1-0.2-0.3c0.2-0.3,0.4-0.6,0.6-0.8c0.1-0.1,0.2-0.2,0.2-0.3c0.1-0.1,0.2-0.3,0.3-0.4
	s0.1-0.2,0.2-0.3c0.1-0.2,0.1-0.3,0.3-0.4c0.1,0,0.1-0.1,0.2-0.2c0.3-0.5,0.7-0.9,1-1.3c0.2-0.3,0.3-0.5,0.6-0.7
	c0,0,0.1-0.1,0.1-0.2c0.1-0.2,0.2-0.4,0.4-0.6c0.1,0,0.1-0.1,0.1-0.2c0.1-0.3,0.3-0.5,0.5-0.7c0.2-0.2,0.3-0.4,0.4-0.6
	s0.3-0.4,0.5-0.6c0.2-0.3,0.5-0.6,0.7-0.9c0.1-0.1,0.2-0.3,0.3-0.5c0.3-0.4,0.6-0.8,0.9-1.2c0.1-0.1,0.2-0.3,0.4-0.3l0.1-0.1
	c0.2-0.1,0.3-0.3,0.5-0.4c0.1-0.1,0.2-0.2,0.3-0.3c0.3-0.3,0.5-0.6,0.8-1c0.1-0.1,0.2-0.3,0.3-0.4c0.1-0.1,0.2-0.2,0.3-0.3
	c0.2-0.1,0.4-0.3,0.5-0.4c0.1-0.1,0.2-0.1,0.3-0.2c0.2-0.1,0.3-0.4,0.5-0.5s0.3-0.3,0.4-0.5c0.2-0.2,0.3-0.5,0.5-0.7
	c0,0,0-0.1,0.1-0.1c0.3-0.2,0.6-0.5,0.9-0.7c0.2-0.1,0.4-0.3,0.5-0.5c0.2-0.2,0.4-0.4,0.5-0.6c0.2-0.2,0.3-0.5,0.5-0.7
	c0.3-0.3,0.6-0.6,0.9-0.8c0.2-0.1,0.4-0.2,0.5-0.4c0.1-0.1,0.2-0.2,0.3-0.3c0.1-0.1,0.1-0.1,0.2-0.2c0.1-0.1,0.2-0.3,0.3-0.4
	c0.1-0.1,0.1-0.1,0.2-0.2c0.3-0.5,0.7-0.9,1.2-1.2C30,8,30.2,7.9,30.3,7.8c0-0.1,0.1-0.1,0.2-0.2c0.2-0.1,0.3-0.3,0.4-0.5
	c0.3-0.4,0.6-0.9,1-1.3c0.2-0.2,0.5-0.3,0.7-0.5c0.1-0.1,0.3,0,0.2,0.2c0,0.1-0.1,0.2-0.1,0.3c-0.1,0.3-0.2,0.5-0.3,0.8
	c0,0.2-0.1,0.3-0.2,0.5C32.1,7.6,32,8,31.8,8.5c-0.1,0.3-0.2,0.7-0.4,1c-0.1,0.2-0.3,0.3-0.4,0.4c-0.2,0.2-0.4,0.4-0.7,0.6
	c-0.2,0.1-0.4,0.3-0.6,0.4c-0.1,0.1-0.2,0.2-0.3,0.3c-0.2,0.3-0.5,0.6-0.7,0.9c-0.1,0.1-0.2,0.2-0.3,0.3c-0.2,0.2-0.4,0.4-0.7,0.6
	c-0.2,0.2-0.4,0.3-0.6,0.4c-0.1,0-0.1,0.1-0.1,0.1c-0.2,0.3-0.5,0.6-0.7,0.9c-0.1,0.2-0.3,0.4-0.4,0.5s-0.1,0.2-0.2,0.3
	s-0.3,0.2-0.4,0.3c-0.2,0.2-0.5,0.4-0.7,0.5c0,0,0,0-0.1,0.1c-0.3,0.3-0.6,0.6-0.8,0.9c-0.1,0.2-0.3,0.4-0.4,0.5
	c0,0.1-0.1,0.1-0.1,0.2s-0.1,0.1-0.1,0.1c-0.2,0.1-0.3,0.3-0.5,0.4c-0.1,0.1-0.3,0.2-0.4,0.2c-0.2,0.1-0.3,0.2-0.4,0.3
	c-0.1,0.2-0.4,0.3-0.5,0.6c-0.2,0.3-0.4,0.6-0.6,0.9c-0.1,0.1-0.3,0.2-0.4,0.4l-0.1,0.1c-0.1,0.2-0.3,0.3-0.5,0.4s-0.4,0.3-0.5,0.4
	l-0.1,0.1c-0.2,0.1-0.3,0.2-0.3,0.4c-0.2,0.3-0.4,0.5-0.6,0.8c-0.1,0.2-0.3,0.2-0.4,0.4l-0.1,0.1c-0.1,0.2-0.3,0.3-0.6,0.4
	c-0.2,0.1-0.3,0.3-0.4,0.4l-0.1,0.1c-0.2,0.1-0.3,0.2-0.4,0.4c-0.1,0.2-0.3,0.4-0.4,0.6c-0.1,0.2-0.4,0.4-0.5,0.6l-0.1,0.1
	c-0.1,0.3-0.4,0.3-0.6,0.5c-0.2,0.1-0.3,0.2-0.4,0.4l-0.1,0.1c-0.2,0.1-0.3,0.2-0.4,0.4c-0.1,0.2-0.3,0.4-0.4,0.6
	c-0.1,0.2-0.3,0.4-0.5,0.6l-0.1,0.1c-0.1,0.2-0.2,0.3-0.4,0.4s-0.4,0.3-0.5,0.4C11.6,29.4,11.6,29.5,11.5,29.5"/>
<path class="st0" d="M23,38.4c-0.2,0-0.2-0.1-0.1-0.2S23,38,23,37.8s0.1-0.4,0.2-0.6c0.1-0.1,0.1-0.2,0.1-0.4
	c0.1-0.3,0.1-0.5,0.3-0.8c0.1-0.3,0.2-0.6,0.3-1c0.1-0.2,0.1-0.4,0.3-0.7c0.1-0.2,0.2-0.3,0.4-0.4c0.1-0.1,0.3-0.2,0.5-0.3
	s0.3-0.4,0.5-0.6c0.2-0.2,0.3-0.4,0.4-0.5c0.2-0.2,0.3-0.4,0.5-0.7c0.1-0.1,0.1-0.1,0.2-0.2s0.2-0.1,0.3-0.2
	c0.2-0.1,0.3-0.3,0.5-0.4c0.3-0.1,0.4-0.4,0.6-0.6c0.3-0.3,0.5-0.7,0.7-1c0.1-0.2,0.3-0.4,0.5-0.5l0.1-0.1c0.2-0.1,0.4-0.3,0.6-0.4
	s0.3-0.2,0.4-0.4c0-0.1,0.1-0.1,0.2-0.2c0.3-0.3,0.5-0.7,0.8-1c0.1-0.1,0.1-0.2,0.2-0.2c0.3-0.3,0.6-0.6,0.9-0.8
	c0.2-0.1,0.4-0.2,0.4-0.4l0,0c0.3-0.3,0.6-0.6,0.8-0.9c0-0.1,0.1-0.1,0.1-0.2c0.2-0.4,0.6-0.7,0.9-1c0.2-0.1,0.4-0.3,0.6-0.3
	c0.1,0,0.2-0.1,0.4-0.1c0.3-0.1,0.5-0.1,0.8-0.2c0.1,0,0.3-0.1,0.4-0.1c0.4-0.1,0.8-0.2,1.2-0.3c0.2,0,0.2,0,0.1,0.2
	c0,0.1-0.1,0.2-0.1,0.2c-0.2,0.1-0.3,0.3-0.5,0.4s-0.4,0.3-0.5,0.5s-0.3,0.4-0.4,0.6c-0.2,0.3-0.5,0.5-0.7,0.8
	c-0.1,0.1-0.2,0.1-0.3,0.2c-0.2,0.1-0.4,0.3-0.6,0.4c-0.2,0.1-0.4,0.3-0.5,0.5c-0.2,0.3-0.5,0.6-0.6,0.9c-0.1,0.1-0.2,0.2-0.3,0.4
	c-0.1,0.1-0.1,0.1-0.2,0.2c0,0.1-0.1,0.1-0.1,0.1c-0.2,0.1-0.4,0.2-0.5,0.4c-0.1,0.1-0.3,0.2-0.4,0.3c-0.1,0.1-0.2,0.1-0.3,0.2
	c-0.2,0.2-0.4,0.5-0.5,0.7c-0.2,0.3-0.5,0.6-0.7,0.9c-0.1,0.1-0.2,0.1-0.3,0.2c-0.2,0.2-0.5,0.5-0.8,0.6c-0.1,0.1-0.2,0.2-0.3,0.3
	c-0.2,0.2-0.4,0.4-0.5,0.7c-0.2,0.3-0.4,0.6-0.6,0.8c-0.1,0.1-0.3,0.2-0.4,0.3c0,0-0.1,0-0.1,0.1c-0.1,0.2-0.3,0.3-0.5,0.4
	c-0.2,0.1-0.4,0.3-0.6,0.5c0,0,0,0.1-0.1,0.1c-0.2,0.1-0.3,0.3-0.4,0.5s-0.2,0.3-0.3,0.5c-0.2,0.2-0.4,0.4-0.6,0.6c0,0,0,0-0.1,0.1
	c-0.1,0.2-0.4,0.3-0.6,0.4c-0.2,0.1-0.3,0.3-0.4,0.4l-0.1,0.1c-0.2,0.1-0.3,0.2-0.4,0.4c-0.2,0.3-0.4,0.5-0.5,0.8
	C23.3,38.4,23.2,38.4,23,38.4"/>
<path class="st0" d="M26.7,21.6c0,0.1,0,0.2-0.1,0.4c-0.1,0.2-0.2,0.4-0.2,0.6c-0.1,0.5-0.4,0.9-0.5,1.4c-0.1,0.3-0.2,0.7-0.4,1
	c-0.1,0.1-0.1,0.2-0.1,0.3c0,0.2-0.2,0.4-0.3,0.6c-0.2,0.2-0.4,0.4-0.6,0.5s-0.3,0.2-0.4,0.3c-0.2,0.2-0.4,0.4-0.5,0.6
	c-0.2,0.3-0.4,0.6-0.6,0.9c-0.1,0.1-0.3,0.2-0.4,0.4c0,0-0.1,0-0.1,0.1c-0.1,0.2-0.4,0.3-0.6,0.4s-0.3,0.3-0.4,0.4l-0.1,0.1
	c-0.2,0.1-0.3,0.2-0.3,0.4c-0.2,0.3-0.4,0.5-0.6,0.8c-0.1,0.1-0.3,0.2-0.4,0.4L20,31.3c-0.1,0.2-0.3,0.3-0.6,0.4
	c-0.2,0.1-0.3,0.3-0.4,0.4l-0.1,0.1c-0.2,0.1-0.3,0.2-0.4,0.4c-0.2,0.3-0.3,0.5-0.5,0.7c-0.1,0.2-0.3,0.3-0.4,0.4l-0.1,0.1
	c-0.1,0.2-0.3,0.3-0.4,0.4c-0.2,0.1-0.4,0.3-0.5,0.4l-0.1,0.1c-0.2,0.1-0.3,0.3-0.5,0.5s-0.3,0.5-0.5,0.7L15.4,36
	c-0.4,0.1-0.9,0.2-1.3,0.3c-0.3,0-0.5,0.1-0.8,0.2c-0.3,0.1-0.5,0.1-0.8,0.2c-0.2,0.1-0.2,0-0.2-0.2c0-0.1,0.1-0.3,0.2-0.4
	c0.2-0.2,0.3-0.4,0.5-0.7c0.1-0.1,0.2-0.3,0.3-0.3s0.1-0.1,0.2-0.2c0.1-0.1,0.2-0.2,0.4-0.3s0.4-0.2,0.5-0.4
	c0.1-0.1,0.1-0.1,0.2-0.2c0.1-0.1,0.2-0.2,0.3-0.3c0.2-0.3,0.5-0.6,0.7-0.9c0.2-0.3,0.5-0.5,0.7-0.7l0.1-0.1c0.2,0,0.3-0.2,0.4-0.3
	c0.1-0.1,0.2-0.2,0.4-0.3c0.1-0.1,0.2-0.2,0.3-0.3c0.2-0.3,0.5-0.7,0.7-1c0.1-0.2,0.4-0.4,0.5-0.6c0,0,0.1-0.1,0.2-0.1
	c0.2,0,0.3-0.1,0.4-0.2c0.2-0.1,0.3-0.3,0.5-0.4s0.3-0.4,0.5-0.6c0.1-0.1,0.2-0.3,0.3-0.5c0.2-0.3,0.4-0.5,0.6-0.8l0.1-0.1
	c0.3-0.1,0.5-0.3,0.6-0.5c0.1-0.1,0.2-0.1,0.3-0.2c0.2-0.2,0.3-0.4,0.5-0.6c0.2-0.1,0.3-0.3,0.4-0.5c0.2-0.3,0.4-0.5,0.6-0.7
	c0.1-0.2,0.4-0.2,0.5-0.4c0.1-0.1,0.3-0.3,0.5-0.4s0.4-0.4,0.5-0.6c0.3-0.3,0.5-0.7,0.8-1c0.2-0.2,0.4-0.4,0.6-0.5
	c0.1,0,0.1,0,0.2,0C26.7,21.4,26.7,21.5,26.7,21.6"/>
<path class="st0" d="M31.3,41.4c0,0.1-0.1,0.2-0.1,0.3c-0.2,0.3-0.3,0.6-0.6,0.7c-0.1,0.1-0.1,0.2-0.1,0.2c-0.1,0.2-0.2,0.4-0.3,0.5
	c-0.1,0.1-0.1,0.2-0.2,0.3c-0.1,0.2-0.3,0.4-0.4,0.5c-0.2,0.3-0.3,0.6-0.6,0.8c-0.1,0.1-0.1,0.1-0.1,0.2c-0.1,0.1-0.2,0.3-0.3,0.4
	c-0.1,0.1-0.2,0.3-0.3,0.5c-0.1,0.2-0.3,0.3-0.4,0.5s-0.3,0.4-0.5,0.6c-0.1,0.1-0.2,0.3-0.3,0.4c0,0.1-0.1,0.1-0.1,0.2
	c-0.2,0.1-0.3,0.3-0.4,0.4c-0.2,0.4-0.5,0.7-0.8,1c-0.1,0.1-0.2,0.3-0.3,0.5c0,0.1-0.1,0.1-0.2,0.2C25.2,49.7,25,49.8,25,50
	c0,0.1-0.2,0.2-0.3,0.3c-0.2,0.2-0.3,0.4-0.4,0.6c-0.2,0.3-0.5,0.6-0.8,0.8l-0.1,0.1c-0.2,0.1-0.3,0.4-0.6,0.4
	c-0.1,0-0.2,0.1-0.3,0.2c-0.1,0.2-0.2,0.3-0.4,0.5c-0.2,0.2-0.3,0.4-0.4,0.6c-0.2,0.3-0.5,0.6-0.7,0.8c-0.1,0-0.1,0.1-0.2,0.1
	c-0.2,0.1-0.3,0.3-0.5,0.4c-0.1,0-0.2,0.1-0.3,0.2c-0.1,0.2-0.2,0.3-0.4,0.4c-0.2,0.2-0.3,0.4-0.4,0.6c-0.2,0.3-0.4,0.5-0.7,0.8
	c-0.2,0.1-0.3,0.3-0.5,0.4c-0.1,0.1-0.2,0.1-0.3,0.2c-0.2,0.1-0.4,0.2-0.4,0.4c0,0.1-0.1,0.1-0.1,0.1c-0.3,0.2-0.5,0.5-0.6,0.8
	c-0.2,0.3-0.4,0.5-0.6,0.7c-0.1,0.1-0.1,0.1-0.2,0.1c-0.1,0-0.2-0.1-0.1-0.2c0.2-0.4,0.3-0.9,0.4-1.3c0.1-0.3,0.2-0.5,0.3-0.7
	c0.1-0.4,0.3-0.7,0.4-1.1c0-0.1,0-0.3,0.1-0.4c0.1-0.2,0.2-0.4,0.4-0.5l0.1-0.1c0.1-0.1,0.2-0.2,0.4-0.3c0.1,0,0.1-0.1,0.2-0.1
	c0.2-0.2,0.4-0.5,0.5-0.7c0.2-0.2,0.3-0.4,0.5-0.7s0.4-0.5,0.7-0.6c0.1,0,0.1-0.1,0.2-0.1c0.1-0.2,0.3-0.3,0.5-0.4
	c0.1,0,0.1-0.1,0.2-0.1c0.1-0.2,0.3-0.4,0.5-0.6c0.2-0.2,0.4-0.5,0.6-0.8c0.1-0.3,0.3-0.4,0.6-0.6c0.1,0,0.1-0.1,0.2-0.2
	c0.1-0.2,0.3-0.3,0.5-0.4c0.1,0,0.1,0,0.2-0.1c0.2-0.3,0.4-0.5,0.6-0.7s0.4-0.4,0.5-0.7s0.3-0.5,0.6-0.6c0.1,0,0.1-0.1,0.2-0.2
	c0.1-0.2,0.3-0.3,0.5-0.3c0.1,0,0.1-0.1,0.2-0.1c0.2-0.3,0.5-0.5,0.7-0.7s0.3-0.4,0.4-0.6c0.1-0.2,0.2-0.4,0.4-0.5
	c0.1-0.1,0.3-0.2,0.4-0.4c0.1-0.1,0.2-0.2,0.3-0.2c0.2-0.1,0.3-0.2,0.5-0.3c0.1-0.2,0.3-0.3,0.5-0.5s0.4-0.4,0.5-0.7
	c0.1-0.2,0.2-0.3,0.4-0.5c0.1-0.1,0.3-0.3,0.4-0.4c0.1-0.1,0.2-0.2,0.3-0.2C30.9,41.8,31.1,41.6,31.3,41.4c0-0.1,0.1-0.1,0.2-0.1
	C31.2,41.3,31.3,41.3,31.3,41.4"/>
<path class="st0" d="M21.5,34.4c-0.1,0-0.2,0-0.3,0c-0.1,0-0.1-0.1-0.1-0.2c0-0.1,0.1-0.2,0.2-0.2c0.2-0.2,0.4-0.4,0.6-0.7
	c0.1-0.1,0.2-0.2,0.3-0.3c0.1-0.1,0.2-0.3,0.3-0.4c0.1-0.1,0.1-0.2,0.2-0.3c0.1-0.2,0.2-0.3,0.4-0.4c0.2-0.1,0.3-0.2,0.4-0.3
	c0.1-0.1,0.2-0.1,0.3-0.2c0.2-0.1,0.3-0.3,0.5-0.5s0.3-0.3,0.5-0.5c0.1-0.2,0.2-0.3,0.3-0.4c0.1-0.1,0.1-0.2,0.1-0.3
	c0.1-0.2,0.2-0.3,0.4-0.4c0.1-0.1,0.3-0.2,0.4-0.3c0-0.1,0.1-0.1,0.2-0.1c0.3-0.1,0.5-0.4,0.7-0.6c0.1-0.1,0.3-0.3,0.4-0.5
	c0.1-0.1,0.2-0.3,0.3-0.4c0.1-0.1,0.1-0.1,0.1-0.2c0.1-0.2,0.2-0.4,0.4-0.5c0.1,0,0.2-0.1,0.2-0.2c0.1-0.2,0.3-0.3,0.5-0.4
	c0.4-0.2,0.7-0.6,1-0.9c0.2-0.2,0.4-0.4,0.5-0.6c0.1-0.1,0.2-0.2,0.4-0.2c0.2,0,0.5,0,0.7-0.2c0.1-0.1,0.3-0.1,0.4-0.1
	c0.2,0,0.4-0.1,0.5-0.1c0.2-0.1,0.3-0.1,0.5-0.1s0.3,0,0.5-0.1c0,0,0.1,0,0.2,0c0.1,0,0.2,0.1,0.1,0.2c0,0.1,0,0.2-0.1,0.3
	c-0.1,0.1-0.1,0.2-0.3,0.3c-0.1,0-0.1,0.1-0.1,0.1c-0.1,0.2-0.2,0.4-0.5,0.5c-0.1,0.1-0.1,0.2-0.2,0.3c-0.3,0.3-0.6,0.4-0.9,0.7
	c-0.2,0.2-0.4,0.3-0.5,0.5c-0.1,0.1-0.2,0.2-0.3,0.3c-0.1,0.1-0.2,0.2-0.2,0.3c-0.1,0.2-0.2,0.4-0.4,0.5c-0.1,0.1-0.2,0.2-0.3,0.3
	c-0.2,0.2-0.3,0.3-0.5,0.4c-0.2,0.2-0.5,0.3-0.7,0.5l-0.1,0.1c-0.1,0.2-0.2,0.3-0.3,0.4c-0.1,0.1-0.2,0.2-0.2,0.3
	c-0.1,0.2-0.2,0.4-0.4,0.5c-0.1,0.1-0.2,0.2-0.3,0.3c-0.1,0.2-0.3,0.3-0.5,0.4c-0.2,0.2-0.4,0.3-0.6,0.5C26,31.7,26,32,25.8,32.1
	c-0.2,0.1-0.3,0.3-0.3,0.5c-0.1,0.2-0.2,0.3-0.3,0.4c-0.1,0.1-0.2,0.3-0.3,0.4c-0.3,0.3-0.6,0.4-0.9,0.5c-0.3,0-0.6,0.1-0.9,0.2
	c-0.1,0.1-0.2,0.1-0.4,0.1c-0.2,0-0.4,0.1-0.6,0.2C21.8,34.4,21.6,34.4,21.5,34.4"/>
<path class="st0" d="M29.2,24.9c0.2,0,0.2,0.1,0.2,0.2s-0.1,0.2-0.2,0.3c-0.1,0.2-0.3,0.3-0.5,0.4c-0.3,0.2-0.6,0.3-0.8,0.6
	c0,0.1-0.1,0.1-0.1,0.1c-0.2,0.1-0.3,0.2-0.3,0.3c-0.1,0.2-0.2,0.4-0.4,0.5c-0.2,0.2-0.3,0.4-0.4,0.5c-0.2,0.1-0.3,0.3-0.5,0.4
	c-0.3,0.2-0.6,0.3-0.8,0.6c0,0.1-0.1,0.1-0.2,0.1c-0.1,0.1-0.2,0.2-0.3,0.3c-0.1,0.2-0.2,0.4-0.3,0.5c-0.2,0.2-0.3,0.4-0.4,0.6
	c-0.1,0.1-0.2,0.2-0.2,0.3c-0.2,0.2-0.4,0.4-0.6,0.5c-0.1,0.1-0.3,0.2-0.4,0.3c-0.1,0.1-0.1,0.1-0.2,0.1c-0.2,0-0.3,0.1-0.3,0.3
	c-0.1,0.2-0.2,0.4-0.4,0.5c-0.2,0.1-0.2,0.3-0.4,0.5c-0.2,0.3-0.4,0.5-0.7,0.7c-0.2,0.2-0.5,0.3-0.7,0.6h-0.1
	c-0.2,0.1-0.4,0.2-0.4,0.4c-0.1,0.2-0.2,0.2-0.3,0.2c-0.2,0-0.4,0-0.6,0.1S18.4,35,18.1,35c-0.1,0-0.3,0.1-0.4,0.1
	c-0.2,0-0.3,0.1-0.5,0.1s-0.3,0-0.5,0.1h-0.1c-0.1,0-0.2-0.1-0.1-0.2c0-0.1,0.1-0.3,0.2-0.4c0.3-0.2,0.6-0.5,0.8-0.7c0,0,0,0,0.1,0
	c0.2,0,0.3-0.2,0.4-0.3c0.1-0.2,0.3-0.3,0.4-0.5c0.2-0.2,0.3-0.4,0.5-0.7s0.3-0.5,0.6-0.6c0.1,0,0.1-0.1,0.2-0.1
	c0.1-0.2,0.3-0.3,0.5-0.4c0.1,0,0.2-0.1,0.2-0.2c0.2-0.2,0.4-0.4,0.6-0.6s0.4-0.5,0.5-0.7s0.2-0.3,0.3-0.4c0.2-0.1,0.3-0.2,0.4-0.4
	c0.1-0.1,0.2-0.2,0.3-0.2c0.2,0,0.3-0.2,0.4-0.3c0.1-0.2,0.3-0.3,0.5-0.5s0.4-0.4,0.5-0.7c0.1-0.2,0.3-0.4,0.5-0.6
	c0.1-0.1,0.1-0.1,0.2-0.2s0.2-0.3,0.4-0.3c0.2-0.1,0.4-0.2,0.5-0.4c0.1-0.1,0.3-0.3,0.4-0.4s0.3-0.1,0.5-0.2c0.5-0.1,1-0.2,1.5-0.4
	c0.3-0.1,0.5-0.1,0.8-0.2C29.1,25,29.1,24.9,29.2,24.9"/>
<path class="st0" d="M22.2,15.4c-0.2,0-0.2-0.1-0.2-0.2c0.1-0.1,0.2-0.3,0.3-0.4c0.1-0.1,0.2-0.2,0.3-0.4c0.1-0.2,0.2-0.4,0.4-0.5
	c0.1-0.1,0.1-0.1,0.2-0.2c0.1-0.3,0.3-0.5,0.5-0.7c0.1-0.2,0.3-0.3,0.4-0.5c0.2-0.2,0.4-0.5,0.5-0.7c0.3-0.4,0.6-0.7,0.8-1.1
	c0.1-0.1,0.2-0.2,0.3-0.3c0.4-0.4,0.6-0.9,1-1.3c0.3-0.3,0.5-0.7,0.8-1C27.6,8,27.6,8,27.7,7.9c0.1-0.1,0.1-0.2,0.2-0.2
	c0.2-0.2,0.4-0.4,0.5-0.6c0,0,0-0.1,0.1-0.1c0.4-0.3,0.6-0.7,0.9-1c0.3-0.4,0.6-0.7,0.9-1.1c0,0,0-0.1,0.1-0.1
	c0.1-0.1,0.2-0.2,0.3-0.3c0.1-0.2,0.2-0.3,0.4-0.4c0.1,0,0.1-0.1,0.2-0.2c0.3-0.4,0.7-0.7,1-1.1c0.1-0.2,0.3-0.3,0.4-0.5
	c0.1-0.1,0.1-0.1,0.2-0.2C33,2,33.1,1.9,33.2,1.8c0.1-0.2,0.2-0.3,0.4-0.4c0.1,0,0.1-0.1,0.2-0.1c0.2-0.4,0.6-0.6,0.9-0.9
	c0.1-0.1,0.1-0.1,0.2-0.2C34.6,0,34.7,0,34.8,0c0.1,0.1,0.1,0.1,0,0.2c0,0.1,0,0.1-0.1,0.2c-0.1,0.2-0.2,0.5-0.2,0.7
	c0,0.1,0,0.1-0.1,0.2c-0.3,0.6-0.4,1.3-0.8,2c0,0.1,0,0.1-0.1,0.2c-0.1,0.3-0.2,0.5-0.4,0.7c0,0-0.1,0.1-0.1,0.2
	c-0.1,0.2-0.2,0.3-0.4,0.5c-0.5,0.4-1,0.7-1.4,1.1C31.1,6.1,31,6.2,31,6.3c-0.1,0.2-0.2,0.3-0.3,0.4c-0.1,0.1-0.2,0.2-0.2,0.3
	c-0.1,0.2-0.2,0.3-0.4,0.4c-0.1,0-0.2,0.2-0.3,0.2c-0.2,0.2-0.4,0.3-0.7,0.5c-0.3,0.2-0.6,0.5-0.8,0.8c0,0,0,0.1-0.1,0.1
	c-0.2,0.2-0.4,0.4-0.5,0.7c-0.1,0.1-0.1,0.2-0.3,0.2c-0.1,0.1-0.2,0.2-0.3,0.3c-0.2,0.1-0.4,0.3-0.5,0.4c-0.2,0.2-0.4,0.3-0.6,0.5
	c-0.1,0.1-0.1,0.1-0.2,0.2v0.1c-0.3,0.3-0.5,0.6-0.7,1c-0.4,0.3-0.7,0.7-1.1,0.9c-0.2,0.1-0.4,0.3-0.6,0.5l-0.1,0.1l0,0
	c-0.1,0.2-0.3,0.3-0.4,0.5s-0.2,0.4-0.3,0.6C22.5,15.1,22.3,15.2,22.2,15.4C22.3,15.4,22.2,15.4,22.2,15.4"/>
<path class="st0" d="M20.8,55c0.1,0,0.2,0.1,0.2,0.2c0,0.1,0,0.2-0.1,0.2l0,0c-0.2,0.4-0.6,0.7-0.8,1.1c-0.1,0.1-0.2,0.2-0.3,0.3
	c-0.2,0.2-0.3,0.4-0.4,0.6c0,0,0,0.1-0.1,0.1c-0.2,0.1-0.3,0.3-0.5,0.5c-0.2,0.3-0.4,0.5-0.6,0.8c-0.1,0.1-0.3,0.3-0.3,0.4
	c-0.1,0.2-0.2,0.3-0.3,0.4c-0.1,0.1-0.2,0.1-0.2,0.3c-0.1,0.3-0.3,0.4-0.5,0.6c-0.1,0-0.1,0.1-0.1,0.2c-0.2,0.3-0.4,0.6-0.6,0.9
	c-0.2,0.2-0.4,0.4-0.5,0.7c0,0.1-0.1,0.2-0.2,0.2c-0.2,0.1-0.3,0.2-0.3,0.4c0,0.1-0.1,0.2-0.1,0.3c-0.1,0.1-0.1,0.1-0.2,0.1
	c-0.1,0-0.2,0-0.2,0c-0.1-0.1-0.1-0.1,0-0.2c0.1-0.2,0.1-0.5,0.2-0.7c0-0.2,0.1-0.3,0.2-0.4c0-0.1,0.1-0.1,0.1-0.2
	c0-0.2,0.1-0.4,0.2-0.5c0.1-0.1,0.1-0.3,0.2-0.5c0.1-0.2,0.1-0.4,0.4-0.4c0.1,0,0.3-0.1,0.4-0.2c0.1-0.1,0.2-0.2,0.3-0.3
	c0.2-0.2,0.3-0.4,0.5-0.6c0.2-0.2,0.3-0.4,0.4-0.6c0.1-0.1,0.2-0.2,0.3-0.3c0.1-0.1,0.2-0.2,0.3-0.4c0.1-0.1,0.1-0.1,0.2-0.2
	c0.2-0.1,0.4-0.2,0.5-0.3c0,0,0,0,0.1-0.1c0.4-0.2,0.6-0.6,0.9-1c0.1-0.1,0.1-0.2,0.2-0.2c0.1-0.2,0.2-0.3,0.4-0.5
	c0.1-0.1,0.2-0.2,0.3-0.4C20.5,55,20.7,55.1,20.8,55"/>
</svg>
